<?xml version="1.0" standalone="no"?>
<!DOCTYPE svg PUBLIC "-//W3C//DTD SVG 1.1//EN" "http://www.w3.org/Graphics/SVG/1.1/DTD/svg11.dtd" >
<svg xmlns="http://www.w3.org/2000/svg">
<metadata>Generated by IcoMoon</metadata>
<defs>
<font id="icomoon" horiz-adv-x="1024">
<font-face units-per-em="1024" ascent="960" descent="-64" />
<missing-glyph horiz-adv-x="1024" />
<glyph unicode="&#x20;" horiz-adv-x="512" d="" />
<glyph unicode="&#xe900;" glyph-name="facebook" d="M938 426.667q0 88-33 165t-92 136-136 92-165 33-165-33-136-92-92-136-33-165q0-78 25-147t72-125 109-94 134-52v290h-84v128h84v106q0 42 21 76t54 54 75 20h106v-128h-84q-18 0-31-13t-13-29v-86h128v-128h-128v-296q82 8 152 44t122 93 81 130 29 157z" />
<glyph unicode="&#xe901;" glyph-name="messenger" d="M0 463.36c0 285.44 223.573 496.64 512 496.64s512-211.2 512-496.64-223.573-496.64-512-496.64c-51.627 0-101.547 6.827-148.053 19.627-3.193 0.894-6.86 1.408-10.647 1.408-6.032 0-11.76-1.304-16.917-3.646l0.257 0.104-101.973-44.8c-4.899-2.236-10.625-3.54-16.656-3.54-22.216 0-40.301 17.686-40.942 39.747l-0.001 0.059-2.987 91.307c-0.5 11.541-5.653 21.787-13.617 28.981l-0.036 0.032c-98.714 89.298-160.47 217.866-160.47 360.857 0 2.286 0.016 4.569 0.047 6.848l-0.004-0.345zM354.987 556.8l-150.187-238.933c-14.933-22.613 13.653-48.64 34.987-32l161.707 122.453c11.093 8.533 25.6 8.533 37.12 0l119.467-89.6c35.84-26.88 87.040-17.067 110.933 20.48l150.187 238.933c14.933 22.613-13.653 48.213-34.987 32l-161.707-122.453c-10.667-8.533-25.6-8.533-36.693 0l-119.467 89.6c-12.716 9.688-28.823 15.521-46.293 15.521-27.292 0-51.26-14.236-64.881-35.688l-0.186-0.313z" />
<glyph unicode="&#xe902;" glyph-name="youtube" d="M1002.453 695.253c-12.365 43.307-45.781 76.722-88.183 88.866l-0.905 0.222c-79.787 21.376-400.896 21.376-400.896 21.376s-320.299 0.427-400.896-21.376c-43.307-12.365-76.722-45.781-88.866-88.183l-0.222-0.905c-14.173-72.978-22.281-156.904-22.281-242.723 0-1.743 0.003-3.484 0.010-5.225l-0.001 0.268c-0.004-1.198-0.006-2.617-0.006-4.035 0-85.813 8.107-169.732 23.598-251.033l-1.32 8.327c12.365-43.307 45.781-76.722 88.183-88.866l0.905-0.222c79.701-21.419 400.896-21.419 400.896-21.419s320.256 0 400.896 21.419c43.307 12.365 76.722 45.781 88.866 88.183l0.222 0.905c13.59 71.472 21.364 153.686 21.364 237.715 0 3.173-0.011 6.344-0.033 9.513l0.003-0.486c0.024 2.951 0.037 6.439 0.037 9.929 0 84.041-7.776 166.267-22.648 245.996l1.278-8.245zM409.984 294.357v306.901l267.264-153.685z" />
<glyph unicode="&#xe903;" glyph-name="whatsapp" d="M746.581 346.368c-12.843 6.4-75.392 36.992-87.040 41.216-11.648 4.309-20.181 6.4-28.715-6.4-8.405-12.587-32.896-41.131-40.277-49.579-7.467-8.32-14.891-8.96-27.563-3.2-12.8 6.4-53.888 19.84-102.528 63.36-37.888 33.92-63.317 75.52-70.827 88.32-7.424 12.8-0.811 19.84 5.547 26.24 5.803 5.76 12.843 14.72 19.243 22.315 6.229 7.723 8.277 12.843 12.672 21.163 4.267 8.96 2.091 16-1.067 22.357-3.2 6.4-28.672 69.12-39.339 94.123-10.24 24.917-20.779 21.76-28.672 21.76-7.339 0.64-15.829 0.64-24.363 0.64s-22.315-3.157-34.005-15.317c-11.648-12.8-44.587-43.52-44.587-105.6s45.653-122.24 52.011-131.2c6.357-8.32 89.813-136.32 217.6-191.36 30.464-12.8 54.187-20.48 72.704-26.837 30.464-9.685 58.24-8.32 80.213-5.163 24.491 3.883 75.392 30.763 86.016 60.843 10.88 30.080 10.88 55.040 7.68 60.8-3.157 5.76-11.52 8.96-24.32 14.72zM514.603 32h-0.683c-75.52 0-150.357 20.48-215.68 58.88l-15.36 9.131-160-41.6 42.88 155.52-10.197 16c-42.24 67.243-64.683 144.683-64.683 224.427 0 232.32 190.080 421.76 424.192 421.76 113.237 0 219.52-44.16 299.563-124.16 80-79.317 124.117-185.6 124.117-298.24-0.171-232.277-190.293-421.76-423.893-421.76zM875.52 812.843c-97.28 94.037-225.28 147.157-361.6 147.157-280.832 0-509.483-227.584-509.611-507.435 0-89.429 23.424-176.64 68.053-253.653l-72.363-262.912 270.293 70.485c74.496-40.235 158.293-61.611 243.627-61.739h0.256c280.96 0 509.696 227.669 509.824 507.563 0 135.509-52.907 263.040-149.12 358.869z" />
<glyph unicode="&#xe904;" glyph-name="facebook1" d="M1023.919 448.038c0 282.748-229.21 511.962-511.957 511.962s-511.962-229.214-511.962-511.962c0-255.535 187.217-467.332 431.966-505.741v357.751h-129.988v147.989h129.988v112.794c0 128.311 76.433 199.185 193.374 199.185 56.013 0 114.603-10.001 114.603-10.001v-125.99h-64.555c-63.599 0-83.435-39.462-83.435-79.949v-96.038h141.99l-22.699-147.989h-119.292v-357.751c244.753 38.409 431.966 250.206 431.966 505.741z" />
<glyph unicode="&#xe905;" glyph-name="account_balance_black_24dp1" d="M277.333 533.333h-85.333v-298.667h85.333v298.667zM533.333 533.333h-85.333v-298.667h85.333v298.667zM896 149.333h-810.667v-85.333h810.667v85.333zM789.333 533.333h-85.333v-298.667h85.333v298.667zM490.667 820.907l222.293-116.907h-444.587l222.293 116.907zM490.667 917.333l-405.333-213.333v-85.333h810.667v85.333l-405.333 213.333z" />
<glyph unicode="&#xe906;" glyph-name="account_balance_wallet_black_24dp1" d="M896 649.387v97.28c0 46.933-38.4 85.333-85.333 85.333h-597.333c-47.36 0-85.333-38.4-85.333-85.333v-597.333c0-46.933 37.973-85.333 85.333-85.333h597.333c46.933 0 85.333 38.4 85.333 85.333v97.28c25.173 14.933 42.667 41.813 42.667 73.387v256c0 31.573-17.493 58.453-42.667 73.387zM853.333 576v-256h-298.667v256h298.667zM213.333 149.333v597.333h597.333v-85.333h-256c-46.933 0-85.333-38.4-85.333-85.333v-256c0-46.933 38.4-85.333 85.333-85.333h256v-85.333h-597.333zM746.667 448c0-35.346-28.654-64-64-64s-64 28.654-64 64c0 35.346 28.654 64 64 64s64-28.654 64-64z" />
<glyph unicode="&#xe907;" glyph-name="account_circle_black_24dp1" d="M512 874.667c-235.52 0-426.667-191.147-426.667-426.667s191.147-426.667 426.667-426.667 426.667 191.147 426.667 426.667-191.147 426.667-426.667 426.667zM313.6 170.667c55.893 40.107 124.16 64 198.4 64s142.507-23.893 198.4-64c-55.893-40.107-124.16-64-198.4-64s-142.507 23.893-198.4 64zM773.973 229.547c-72.107 56.32-162.987 90.453-261.973 90.453s-189.867-34.133-261.973-90.453c-49.493 59.307-79.36 135.253-79.36 218.453 0 188.587 152.747 341.333 341.333 341.333s341.333-152.747 341.333-341.333c0-83.2-29.867-159.147-79.36-218.453zM512 704c-82.347 0-149.333-66.987-149.333-149.333s66.987-149.333 149.333-149.333 149.333 66.987 149.333 149.333-66.987 149.333-149.333 149.333zM512 490.667c-35.413 0-64 28.587-64 64s28.587 64 64 64 64-28.587 64-64-28.587-64-64-64z" />
<glyph unicode="&#xe908;" glyph-name="add_card_black_24dp1" d="M853.333 789.333h-682.667c-47.36 0-84.907-37.973-84.907-85.333l-0.427-512c0-47.36 37.973-85.333 85.333-85.333h426.667v85.333h-426.667v256h768v256c0 47.36-37.973 85.333-85.333 85.333zM853.333 618.667h-682.667v85.333h682.667v-85.333zM1024 234.667v-85.333h-128v-128h-85.333v128h-128v85.333h128v128h85.333v-128h128z" />
<glyph unicode="&#xe909;" glyph-name="add_circle_black_24dp1" d="M512 874.667c-235.52 0-426.667-191.147-426.667-426.667s191.147-426.667 426.667-426.667 426.667 191.147 426.667 426.667-191.147 426.667-426.667 426.667zM725.333 405.333h-170.667v-170.667h-85.333v170.667h-170.667v85.333h170.667v170.667h85.333v-170.667h170.667v-85.333z" />
<glyph unicode="&#xe90a;" glyph-name="add_shopping_cart_black_24dp1" d="M469.333 576h85.333v128h128v85.333h-128v128h-85.333v-128h-128v-85.333h128v-128zM298.667 192c-46.933 0-84.907-38.4-84.907-85.333s37.973-85.333 84.907-85.333 85.333 38.4 85.333 85.333-38.4 85.333-85.333 85.333zM725.333 192c-46.933 0-84.907-38.4-84.907-85.333s37.973-85.333 84.907-85.333 85.333 38.4 85.333 85.333-38.4 85.333-85.333 85.333zM345.6 405.333h317.867c32 0 60.16 17.493 74.667 43.947l164.693 299.093-74.24 40.96-165.12-298.667h-299.52l-181.76 384h-139.52v-85.333h85.333l153.6-323.84-57.6-104.107c-31.147-57.173 9.813-126.72 74.667-126.72h512v85.333h-512l46.933 85.333z" />
<glyph unicode="&#xe90b;" glyph-name="admin_panel_settings_black_24dp1" d="M773.12 298.667c0-26.392-21.395-47.787-47.787-47.787s-47.787 21.395-47.787 47.787c0 26.392 21.395 47.787 47.787 47.787s47.787-21.395 47.787-47.787zM725.333 213.333c-31.147 0-93.44-15.36-95.573-46.080 21.333-30.293 56.32-49.92 95.573-49.92s74.24 19.627 95.573 49.92c-2.133 30.72-64.427 46.080-95.573 46.080zM768 486.827v205.653l-320 139.52-320-139.52v-209.493c0-193.707 136.533-375.040 320-418.987 23.467 5.547 46.080 13.653 68.267 23.467 46.080-65.707 122.453-108.8 209.067-108.8 141.227 0 256 114.773 256 256 0 126.72-92.16 231.68-213.333 252.16zM469.333 234.667c0-23.893 3.413-47.36 9.813-69.12-10.24-4.693-20.48-9.387-31.147-12.8-135.253 42.667-234.667 180.907-234.667 330.24v153.6l234.667 102.4 234.667-102.4v-149.76c-121.173-20.48-213.333-125.44-213.333-252.16zM725.333 64c-94.293 0-170.667 76.373-170.667 170.667s76.373 170.667 170.667 170.667 170.667-76.373 170.667-170.667c0-94.293-76.373-170.667-170.667-170.667z" />
<glyph unicode="&#xe90c;" glyph-name="alternate_email_black_24dp1" d="M512 876.8c-235.52 0-426.667-191.147-426.667-426.667s191.147-426.667 426.667-426.667h213.333v85.333h-213.333c-185.173 0-341.333 156.16-341.333 341.333s156.16 341.333 341.333 341.333 341.333-156.16 341.333-341.333v-61.013c0-33.707-30.293-66.987-64-66.987s-64 33.28-64 66.987v61.013c0 117.76-95.573 213.333-213.333 213.333s-213.333-95.573-213.333-213.333 95.573-213.333 213.333-213.333c58.88 0 112.64 23.893 151.040 62.72 27.733-37.973 75.52-62.72 126.293-62.72 84.053 0 149.333 68.267 149.333 152.32v61.013c0 235.52-191.147 426.667-426.667 426.667zM512 322.133c-70.827 0-128 57.173-128 128s57.173 128 128 128 128-57.173 128-128-57.173-128-128-128z" />
<glyph unicode="&#xe90d;" glyph-name="archive_black_24dp1" d="M876.373 736.853l-59.307 71.68c-11.52 14.507-29.013 23.467-49.067 23.467h-512c-20.053 0-37.547-8.96-49.493-23.467l-58.88-71.68c-12.373-14.507-19.627-33.707-19.627-54.187v-533.333c0-46.933 38.4-85.333 85.333-85.333h597.333c46.933 0 85.333 38.4 85.333 85.333v533.333c0 20.48-7.253 39.68-19.627 54.187zM266.24 746.667h491.52l34.56-41.387h-560.213l34.133 41.387zM213.333 149.333v469.333h597.333v-469.333h-597.333zM573.867 533.333h-123.733v-128h-108.8l170.667-170.667 170.667 170.667h-108.8z" />
<glyph unicode="&#xe90e;" glyph-name="arrow_back_black_24dp1" d="M853.333 490.667h-519.253l238.507 238.507-60.587 60.16-341.333-341.333 341.333-341.333 60.16 60.16-238.080 238.507h519.253v85.333z" />
<glyph unicode="&#xe90f;" glyph-name="arrow_circle_down_black_24dp1" d="M512 789.333c188.16 0 341.333-153.173 341.333-341.333s-153.173-341.333-341.333-341.333-341.333 153.173-341.333 341.333 153.173 341.333 341.333 341.333zM512 874.667c-235.52 0-426.667-191.147-426.667-426.667s191.147-426.667 426.667-426.667c235.52 0 426.667 191.147 426.667 426.667s-191.147 426.667-426.667 426.667v0zM554.667 448v170.667h-85.333v-170.667h-128l170.667-170.667 170.667 170.667h-128z" />
<glyph unicode="&#xe910;" glyph-name="arrow_circle_left_black_24dp1" d="M85.333 448c0-235.52 191.147-426.667 426.667-426.667s426.667 191.147 426.667 426.667-191.147 426.667-426.667 426.667c-235.52 0-426.667-191.147-426.667-426.667zM853.333 448c0-188.587-152.747-341.333-341.333-341.333s-341.333 152.747-341.333 341.333 152.747 341.333 341.333 341.333c188.587 0 341.333-152.747 341.333-341.333zM341.333 448l170.667 170.667 60.16-60.16-67.413-67.84h177.92v-85.333h-177.92l67.84-67.84-60.587-60.16-170.667 170.667z" />
<glyph unicode="&#xe911;" glyph-name="arrow_circle_right_black_24dp1" d="M938.667 448c0 235.52-191.147 426.667-426.667 426.667s-426.667-191.147-426.667-426.667 191.147-426.667 426.667-426.667c235.52 0 426.667 191.147 426.667 426.667zM170.667 448c0 188.587 152.747 341.333 341.333 341.333s341.333-152.747 341.333-341.333-152.747-341.333-341.333-341.333c-188.587 0-341.333 152.747-341.333 341.333zM682.667 448l-170.667-170.667-60.16 60.16 67.413 67.84h-177.92v85.333h177.92l-67.84 67.84 60.587 60.16 170.667-170.667z" />
<glyph unicode="&#xe912;" glyph-name="arrow_circle_up_black_24dp1" d="M512 106.667c-188.16 0-341.333 153.173-341.333 341.333s153.173 341.333 341.333 341.333 341.333-153.173 341.333-341.333-153.173-341.333-341.333-341.333zM512 21.333c235.52 0 426.667 191.147 426.667 426.667s-191.147 426.667-426.667 426.667c-235.52 0-426.667-191.147-426.667-426.667s191.147-426.667 426.667-426.667v0zM469.333 448v-170.667h85.333v170.667h128l-170.667 170.667-170.667-170.667h128z" />
<glyph unicode="&#xe913;" glyph-name="arrow_forward_black_24dp1" d="M512 789.333l-60.16-60.16 238.080-238.507h-519.253v-85.333h519.253l-238.080-238.507 60.16-60.16 341.333 341.333-341.333 341.333z" />
<glyph unicode="&#xe914;" glyph-name="assignment_black_24dp1" d="M298.667 320h298.667v-85.333h-298.667zM298.667 490.667h426.667v-85.333h-426.667zM298.667 661.333h426.667v-85.333h-426.667zM810.667 832h-178.347c-17.92 49.493-64.853 85.333-120.32 85.333s-102.4-35.84-120.32-85.333h-178.347c-5.973 0-11.52-0.427-17.067-1.707-16.64-3.413-31.573-11.947-43.093-23.467-7.68-7.68-14.080-17.067-18.347-27.307-4.267-9.813-6.827-20.907-6.827-32.853v-597.333c0-11.52 2.56-23.040 6.827-33.28s10.667-19.2 18.347-27.307c11.52-11.52 26.453-20.053 43.093-23.467 5.547-0.853 11.093-1.28 17.067-1.28h597.333c46.933 0 85.333 38.4 85.333 85.333v597.333c0 46.933-38.4 85.333-85.333 85.333zM512 842.667c17.493 0 32-14.507 32-32s-14.507-32-32-32-32 14.507-32 32 14.507 32 32 32zM810.667 149.333h-597.333v597.333h597.333v-597.333z" />
<glyph unicode="&#xe915;" glyph-name="assignment_turned_in_black_24dp1" d="M768 576l-60.16 60.587-281.173-281.173-110.507 110.080-60.16-60.16 170.667-170.667zM810.667 832h-178.347c-17.92 49.493-64.853 85.333-120.32 85.333s-102.4-35.84-120.32-85.333h-178.347c-5.973 0-11.52-0.427-17.067-1.707-16.64-3.413-31.573-11.947-43.093-23.467-7.68-7.68-14.080-17.067-18.347-27.307-4.267-9.813-6.827-20.907-6.827-32.853v-597.333c0-11.52 2.56-23.040 6.827-33.28s10.667-19.2 18.347-27.307c11.52-11.52 26.453-20.053 43.093-23.467 5.547-0.853 11.093-1.28 17.067-1.28h597.333c46.933 0 85.333 38.4 85.333 85.333v597.333c0 46.933-38.4 85.333-85.333 85.333zM512 842.667c17.493 0 32-14.507 32-32s-14.507-32-32-32-32 14.507-32 32 14.507 32 32 32zM810.667 149.333h-597.333v597.333h597.333v-597.333z" />
<glyph unicode="&#xe916;" glyph-name="attach_money_black_24dp1" d="M503.467 494.933c-96.853 25.173-128 51.2-128 91.733 0 46.507 43.093 78.933 115.2 78.933 75.947 0 104.107-36.267 106.667-89.6h94.293c-2.987 73.387-47.787 140.8-136.96 162.56v93.44h-128v-92.16c-82.773-17.92-149.333-71.68-149.333-154.027 0-98.56 81.493-147.627 200.533-176.213 106.667-25.6 128-63.147 128-102.827 0-29.44-20.907-76.373-115.2-76.373-87.893 0-122.453 39.253-127.147 89.6h-93.867c5.12-93.44 75.093-145.92 157.013-163.413v-92.587h128v91.733c83.2 15.787 149.333 64 149.333 151.467 0 121.173-103.68 162.56-200.533 187.733z" />
<glyph unicode="&#xe917;" glyph-name="bar_chart_black_24dp1" d="M170.667 576h170.667v-469.333h-170.667v469.333zM682.667 405.333h170.667v-298.667h-170.667v298.667zM426.667 789.333h170.667v-682.667h-170.667v682.667z" />
<glyph unicode="&#xe918;" glyph-name="block_black_24dp1" d="M512 874.667c-235.52 0-426.667-191.147-426.667-426.667s191.147-426.667 426.667-426.667 426.667 191.147 426.667 426.667-191.147 426.667-426.667 426.667zM170.667 448c0 188.587 152.747 341.333 341.333 341.333 78.933 0 151.467-26.88 209.067-72.107l-478.293-478.293c-45.227 57.6-72.107 130.133-72.107 209.067zM512 106.667c-78.933 0-151.467 26.88-209.067 72.107l478.293 478.293c45.227-57.6 72.107-130.133 72.107-209.067 0-188.587-152.747-341.333-341.333-341.333z" />
<glyph unicode="&#xe919;" glyph-name="bookmark_add_black_24dp1" d="M725.333 490.667v-297.387l-213.333 91.307-213.333-91.307v553.387h256v85.333h-256c-46.933 0-85.333-38.4-85.333-85.333v-682.667l298.667 128 298.667-128v426.667h-85.333zM896 661.333h-85.333v-85.333h-85.333v85.333h-85.333v85.333h85.333v85.333h85.333v-85.333h85.333v-85.333z" />
<glyph unicode="&#xe91a;" glyph-name="bookmark_added_black_24dp1" d="M725.333 490.667v-297.387l-213.333 91.307-213.333-91.307v553.387h256v85.333h-256c-46.933 0-85.333-38.4-85.333-85.333v-682.667l298.667 128 298.667-128v426.667h-85.333zM760.747 576l-120.747 120.747 60.16 60.16 60.16-60.16 151.040 151.040 60.16-60.16-210.773-211.627z" />
<glyph unicode="&#xe91b;" glyph-name="bookmark_black_24dp1" d="M725.333 832h-426.667c-46.933 0-85.333-38.4-85.333-85.333v-682.667l298.667 128 298.667-128v682.667c0 46.933-38.4 85.333-85.333 85.333z" />
<glyph unicode="&#xe91c;" glyph-name="bookmark_border_black_24dp1" d="M725.333 832h-426.667c-46.933 0-85.333-38.4-85.333-85.333v-682.667l298.667 128 298.667-128v682.667c0 46.933-38.4 85.333-85.333 85.333zM725.333 192l-213.333 93.013-213.333-93.013v554.667h426.667v-554.667z" />
<glyph unicode="&#xe91d;" glyph-name="bookmark_remove_black_24dp1" d="M725.333 490.667v-297.387l-213.333 91.307-213.333-91.307v553.387h256v85.333h-256c-46.933 0-85.333-38.4-85.333-85.333v-682.667l298.667 128 298.667-128v426.667h-85.333zM896 661.333h-256v85.333h256v-85.333z" />
<glyph unicode="&#xe91e;" glyph-name="call_black_24dp1" d="M279.040 746.667c2.56-37.973 8.96-75.093 19.2-110.507l-51.2-51.2c-17.493 51.2-28.587 105.387-32.427 161.707h64.427zM699.733 233.813c36.267-10.24 73.387-16.64 110.933-19.2v-63.573c-56.32 3.84-110.507 14.933-162.133 32l51.2 50.773zM320 832h-149.333c-23.467 0-42.667-19.2-42.667-42.667 0-400.64 324.693-725.333 725.333-725.333 23.467 0 42.667 19.2 42.667 42.667v148.907c0 23.467-19.2 42.667-42.667 42.667-52.907 0-104.533 8.533-152.32 24.32-4.267 1.707-8.96 2.133-13.227 2.133-11.093 0-21.76-4.267-30.293-12.373l-93.867-93.867c-120.747 61.867-219.733 160.427-281.173 281.173l93.867 93.867c11.947 11.947 15.36 28.587 10.667 43.52-15.787 47.787-24.32 98.987-24.32 152.32 0 23.467-19.2 42.667-42.667 42.667z" />
<glyph unicode="&#xe91f;" glyph-name="card_giftcard_black_24dp1" d="M853.333 704h-93.013c4.693 13.227 7.68 27.733 7.68 42.667 0 70.827-57.173 128-128 128-44.8 0-83.627-23.040-106.667-57.6l-21.333-28.587-21.333 29.013c-23.040 34.133-61.867 57.173-106.667 57.173-70.827 0-128-57.173-128-128 0-14.933 2.987-29.44 7.68-42.667h-93.013c-47.36 0-84.907-37.973-84.907-85.333l-0.427-469.333c0-47.36 37.973-85.333 85.333-85.333h682.667c47.36 0 85.333 37.973 85.333 85.333v469.333c0 47.36-37.973 85.333-85.333 85.333zM640 789.333c23.467 0 42.667-19.2 42.667-42.667s-19.2-42.667-42.667-42.667-42.667 19.2-42.667 42.667 19.2 42.667 42.667 42.667zM384 789.333c23.467 0 42.667-19.2 42.667-42.667s-19.2-42.667-42.667-42.667-42.667 19.2-42.667 42.667 19.2 42.667 42.667 42.667zM853.333 149.333h-682.667v85.333h682.667v-85.333zM853.333 362.667h-682.667v256h216.747l-88.747-120.747 69.12-49.92 144.213 196.267 144.213-196.267 69.12 49.92-88.747 120.747h216.747v-256z" />
<glyph unicode="&#xe920;" glyph-name="card_membership_black_24dp1" d="M853.333 874.667h-682.667c-47.36 0-85.333-37.973-85.333-85.333v-469.333c0-47.36 37.973-85.333 85.333-85.333h170.667v-213.333l170.667 85.333 170.667-85.333v213.333h170.667c47.36 0 85.333 37.973 85.333 85.333v469.333c0 47.36-37.973 85.333-85.333 85.333zM853.333 320h-682.667v85.333h682.667v-85.333zM853.333 533.333h-682.667v256h682.667v-256z" />
<glyph unicode="&#xe921;" glyph-name="category_black_24dp1" d="M512 874.667l-234.667-384h469.333l-234.667 384zM512 710.827l82.347-134.827h-165.12l82.773 134.827zM746.667 405.333c-106.24 0-192-85.76-192-192s85.76-192 192-192 192 85.76 192 192-85.76 192-192 192zM746.667 106.667c-58.88 0-106.667 47.787-106.667 106.667s47.787 106.667 106.667 106.667 106.667-47.787 106.667-106.667-47.787-106.667-106.667-106.667zM128 42.667h341.333v341.333h-341.333v-341.333zM213.333 298.667h170.667v-170.667h-170.667v170.667z" />
<glyph unicode="&#xe922;" glyph-name="chat_black_24dp1" d="M170.667 789.333h682.667v-512h-632.747l-49.92-49.92v561.92zM170.667 874.667c-46.933 0-84.907-38.4-84.907-85.333l-0.427-768 170.667 170.667h597.333c46.933 0 85.333 38.4 85.333 85.333v512c0 46.933-38.4 85.333-85.333 85.333h-682.667zM256 448h341.333v-85.333h-341.333v85.333zM256 576h512v-85.333h-512v85.333zM256 704h512v-85.333h-512v85.333z" />
<glyph unicode="&#xe923;" glyph-name="chevron_left_black_24dp1" d="M657.493 643.84l-60.16 60.16-256-256 256-256 60.16 60.16-195.413 195.84 195.413 195.84z" />
<glyph unicode="&#xe924;" glyph-name="chevron_right_black_24dp1" d="M426.667 704l-60.16-60.16 195.413-195.84-195.413-195.84 60.16-60.16 256 256-256 256z" />
<glyph unicode="&#xe925;" glyph-name="clear_black_24dp1" d="M810.667 686.507l-60.16 60.16-238.507-238.507-238.507 238.507-60.16-60.16 238.507-238.507-238.507-238.507 60.16-60.16 238.507 238.507 238.507-238.507 60.16 60.16-238.507 238.507 238.507 238.507z" />
<glyph unicode="&#xe926;" glyph-name="close_black_24dp1" d="M810.667 686.507l-60.16 60.16-238.507-238.507-238.507 238.507-60.16-60.16 238.507-238.507-238.507-238.507 60.16-60.16 238.507 238.507 238.507-238.507 60.16 60.16-238.507 238.507 238.507 238.507z" />
<glyph unicode="&#xe927;" glyph-name="cloud_download_black_24dp1" d="M825.6 531.627c-29.013 147.2-158.293 257.707-313.6 257.707-123.307 0-230.4-69.973-283.733-172.373-128.427-13.653-228.267-122.453-228.267-254.293 0-141.227 114.773-256 256-256h554.667c117.76 0 213.333 95.573 213.333 213.333 0 112.64-87.467 203.947-198.4 211.627zM810.667 192h-554.667c-94.293 0-170.667 76.373-170.667 170.667 0 87.467 65.28 160.427 151.893 169.387l45.653 4.693 21.333 40.533c40.533 78.080 119.893 126.72 207.787 126.72 111.787 0 208.213-79.36 229.973-189.013l12.8-64 65.28-4.693c66.56-4.267 118.613-60.16 118.613-126.293 0-70.4-57.6-128-128-128zM573.867 533.333h-123.733v-128h-108.8l170.667-170.667 170.667 170.667h-108.8z" />
<glyph unicode="&#xe928;" glyph-name="cloud_upload_black_24dp1" d="M825.6 531.627c-29.013 147.2-158.293 257.707-313.6 257.707-123.307 0-230.4-69.973-283.733-172.373-128.427-13.653-228.267-122.453-228.267-254.293 0-141.227 114.773-256 256-256h554.667c117.76 0 213.333 95.573 213.333 213.333 0 112.64-87.467 203.947-198.4 211.627zM810.667 192h-554.667c-94.293 0-170.667 76.373-170.667 170.667 0 87.467 65.28 160.427 151.893 169.387l45.653 4.693 21.333 40.533c40.533 78.080 119.893 126.72 207.787 126.72 111.787 0 208.213-79.36 229.973-189.013l12.8-64 65.28-4.693c66.56-4.267 118.613-60.16 118.613-126.293 0-70.4-57.6-128-128-128zM341.333 405.333h108.8v-128h123.733v128h108.8l-170.667 170.667z" />
<glyph unicode="&#xe929;" glyph-name="credit_card_black_24dp1" d="M853.333 789.333h-682.667c-47.36 0-84.907-37.973-84.907-85.333l-0.427-512c0-47.36 37.973-85.333 85.333-85.333h682.667c47.36 0 85.333 37.973 85.333 85.333v512c0 47.36-37.973 85.333-85.333 85.333zM853.333 192h-682.667v256h682.667v-256zM853.333 618.667h-682.667v85.333h682.667v-85.333z" />
<glyph unicode="&#xe92a;" glyph-name="credit_score_black_24dp1" d="M853.333 789.333h-682.667c-47.36 0-84.907-37.973-84.907-85.333l-0.427-512c0-47.36 37.973-85.333 85.333-85.333h213.333v85.333h-213.333v256h768v256c0 47.36-37.973 85.333-85.333 85.333zM853.333 618.667h-682.667v85.333h682.667v-85.333zM637.013 142.080l-120.747 120.747-60.16-60.16 180.907-181.333 301.653 301.653-60.16 60.16-241.493-241.067z" />
<glyph unicode="&#xe92b;" glyph-name="dashboard_black_24dp1" d="M810.667 746.667v-85.333h-170.667v85.333h170.667zM384 746.667v-256h-170.667v256h170.667zM810.667 405.333v-256h-170.667v256h170.667zM384 234.667v-85.333h-170.667v85.333h170.667zM896 832h-341.333v-256h341.333v256zM469.333 832h-341.333v-426.667h341.333v426.667zM896 490.667h-341.333v-426.667h341.333v426.667zM469.333 320h-341.333v-256h341.333v256z" />
<glyph unicode="&#xe92c;" glyph-name="delete_black_24dp1" d="M682.667 576v-426.667h-341.333v426.667h341.333zM618.667 832h-213.333l-42.667-42.667h-149.333v-85.333h597.333v85.333h-149.333l-42.667 42.667zM768 661.333h-512v-512c0-46.933 38.4-85.333 85.333-85.333h341.333c46.933 0 85.333 38.4 85.333 85.333v512z" />
<glyph unicode="&#xe92d;" glyph-name="delete_forever_black_24dp1" d="M602.453 513.28l-90.453-90.453-90.88 90.453-60.16-60.16 90.88-90.453-90.453-90.453 60.16-60.16 90.453 90.453 90.453-90.453 60.16 60.16-90.453 90.453 90.453 90.453zM661.333 789.333l-42.667 42.667h-213.333l-42.667-42.667h-149.333v-85.333h597.333v85.333zM256 149.333c0-46.933 38.4-85.333 85.333-85.333h341.333c46.933 0 85.333 38.4 85.333 85.333v512h-512v-512zM341.333 576h341.333v-426.667h-341.333v426.667z" />
<glyph unicode="&#xe92e;" glyph-name="download_black_24dp1" d="M810.667 576h-170.667v256h-256v-256h-170.667l298.667-298.667 298.667 298.667zM469.333 490.667v256h85.333v-256h49.92l-92.587-92.587-92.587 92.587h49.92zM213.333 192h597.333v-85.333h-597.333z" />
<glyph unicode="&#xe92f;" glyph-name="download_done_black_24dp1" d="M213.333 192h597.333v-85.333h-597.333v85.333zM409.6 307.2l-196.267 196.267 85.333 81.067 110.933-110.933 315.733 315.733 85.333-85.333-401.067-396.8z" />
<glyph unicode="&#xe930;" glyph-name="downloading_black_24dp1" d="M781.653 778.24c-63.147 51.627-141.227 85.76-226.987 94.293v-86.187c62.293-7.68 119.040-32.427 166.4-69.12l60.587 61.013zM850.347 490.667h86.187c-8.533 85.76-42.667 163.84-94.293 226.987l-61.013-60.587c36.693-47.36 61.44-104.107 69.12-166.4zM781.227 238.933l61.013-61.013c51.627 63.147 85.76 141.653 94.293 226.987h-86.187c-7.68-61.867-32.427-118.613-69.12-165.973zM554.667 109.653v-86.187c85.76 8.533 163.84 42.667 226.987 94.293l-61.013 61.013c-46.933-36.693-103.68-61.44-165.973-69.12zM665.173 508.16l-110.507-110.080v263.253h-85.333v-263.253l-110.507 110.507-60.16-60.587 213.333-213.333 213.333 213.333-60.16 60.16zM469.333 109.653v-86.187c-215.467 21.333-384 203.093-384 424.533s168.533 403.2 384 424.533v-86.187c-168.533-20.907-298.667-164.267-298.667-338.347s130.133-317.44 298.667-338.347z" />
<glyph unicode="&#xe931;" glyph-name="edit_black_24dp1" d="M599.893 575.147l39.253-39.253-386.56-386.56h-39.253v39.253l386.56 386.56zM753.493 832c-10.667 0-21.76-4.267-29.867-12.373l-78.080-78.080 160-160 78.080 78.080c16.64 16.64 16.64 43.52 0 60.16l-99.84 99.84c-8.533 8.533-19.2 12.373-30.293 12.373zM599.893 695.893l-471.893-471.893v-160h160l471.893 471.893-160 160z" />
<glyph unicode="&#xe932;" glyph-name="edit_note_black_24dp1" d="M128 533.333h469.333v-85.333h-469.333v85.333zM128 618.667h469.333v85.333h-469.333v-85.333zM128 277.333h298.667v85.333h-298.667v-85.333zM768.427 410.88l30.293 30.293c16.64 16.64 43.52 16.64 60.16 0l30.293-30.293c16.64-16.64 16.64-43.52 0-60.16l-30.293-30.293-90.453 90.453zM738.133 380.587l-226.133-226.133v-90.453h90.453l226.133 226.133-90.453 90.453z" />
<glyph unicode="&#xe933;" glyph-name="emoji_events_black_24dp1" d="M810.667 746.667h-85.333v85.333h-426.667v-85.333h-85.333c-46.933 0-85.333-38.4-85.333-85.333v-42.667c0-108.8 81.92-197.547 187.307-210.773 26.88-64 84.48-112.213 154.027-126.293v-132.267h-170.667v-85.333h426.667v85.333h-170.667v132.267c69.547 14.080 127.147 62.293 154.027 126.293 105.387 13.227 187.307 101.973 187.307 210.773v42.667c0 46.933-38.4 85.333-85.333 85.333zM213.333 618.667v42.667h85.333v-162.987c-49.493 17.92-85.333 64.853-85.333 120.32zM512 362.667c-70.4 0-128 57.6-128 128v256h256v-256c0-70.4-57.6-128-128-128zM810.667 618.667c0-55.467-35.84-102.4-85.333-120.32v162.987h85.333v-42.667z" />
<glyph unicode="&#xe934;" glyph-name="expand_less_black_24dp1" d="M512 618.667l-256-256 60.16-60.16 195.84 195.413 195.84-195.413 60.16 60.16-256 256z" />
<glyph unicode="&#xe935;" glyph-name="expand_more_black_24dp1" d="M707.84 593.493l-195.84-195.413-195.84 195.413-60.16-60.16 256-256 256 256-60.16 60.16z" />
<glyph unicode="&#xe936;" glyph-name="explore_black_24dp1" d="M512 874.667c-235.52 0-426.667-191.147-426.667-426.667s191.147-426.667 426.667-426.667 426.667 191.147 426.667 426.667-191.147 426.667-426.667 426.667zM512 106.667c-188.16 0-341.333 153.173-341.333 341.333s153.173 341.333 341.333 341.333 341.333-153.173 341.333-341.333-153.173-341.333-341.333-341.333zM277.333 213.333l320.427 148.907 148.907 320.427-320.427-148.907-148.907-320.427zM512 494.933c26.027 0 46.933-20.907 46.933-46.933s-20.907-46.933-46.933-46.933-46.933 20.907-46.933 46.933 20.907 46.933 46.933 46.933z" />
<glyph unicode="&#xe937;" glyph-name="extension_black_24dp1" d="M448 768c11.947 0 21.333-9.387 21.333-21.333v-85.333h256v-256h85.333c11.947 0 21.333-9.387 21.333-21.333s-9.387-21.333-21.333-21.333h-85.333v-256h-90.453c-29.013 74.667-101.973 128-186.88 128s-157.867-53.333-186.88-128h-90.453v90.453c74.667 29.013 128 101.973 128 186.88s-52.907 157.867-127.573 186.88l-0.427 90.453h256v85.333c0 11.947 9.387 21.333 21.333 21.333zM448 853.333c-58.88 0-106.667-47.787-106.667-106.667h-170.667c-46.933 0-84.907-38.4-84.907-85.333v-162.133h12.373c63.573 0 115.2-51.627 115.2-115.2s-51.627-115.2-115.2-115.2h-12.8v-162.133c0-46.933 38.4-85.333 85.333-85.333h162.133v12.8c0 63.573 51.627 115.2 115.2 115.2s115.2-51.627 115.2-115.2v-12.8h162.133c46.933 0 85.333 38.4 85.333 85.333v170.667c58.88 0 106.667 47.787 106.667 106.667s-47.787 106.667-106.667 106.667v170.667c0 46.933-38.4 85.333-85.333 85.333h-170.667c0 58.88-47.787 106.667-106.667 106.667z" />
<glyph unicode="&#xe938;" glyph-name="favorite_black_24dp1" d="M512 49.067l-61.867 56.32c-219.733 199.253-364.8 330.667-364.8 491.947 0 131.413 103.253 234.667 234.667 234.667 74.24 0 145.493-34.56 192-89.173 46.507 54.613 117.76 89.173 192 89.173 131.413 0 234.667-103.253 234.667-234.667 0-161.28-145.067-292.693-364.8-492.373l-61.867-55.893z" />
<glyph unicode="&#xe939;" glyph-name="favorite_border_black_24dp1" d="M704 832c-74.24 0-145.493-34.56-192-89.173-46.507 54.613-117.76 89.173-192 89.173-131.413 0-234.667-103.253-234.667-234.667 0-161.28 145.067-292.693 364.8-492.373l61.867-55.893 61.867 56.32c219.733 199.253 364.8 330.667 364.8 491.947 0 131.413-103.253 234.667-234.667 234.667zM516.267 168.533l-4.267-4.267-4.267 4.267c-203.093 183.893-337.067 305.493-337.067 428.8 0 85.333 64 149.333 149.333 149.333 65.707 0 129.707-42.24 152.32-100.693h79.787c22.187 58.453 86.187 100.693 151.893 100.693 85.333 0 149.333-64 149.333-149.333 0-123.307-133.973-244.907-337.067-428.8z" />
<glyph unicode="&#xe93a;" glyph-name="fax_black_24dp1" d="M810.667 576h-42.667v213.333h-426.667v-213.333h-33.28c-23.467 26.027-56.747 42.667-94.72 42.667-70.827 0-128-57.173-128-128v-298.667c0-70.827 57.173-128 128-128 37.973 0 71.253 16.64 94.72 42.667h630.613v341.333c0 70.827-57.173 128-128 128zM256 192c0-23.467-19.2-42.667-42.667-42.667s-42.667 19.2-42.667 42.667v298.667c0 23.467 19.2 42.667 42.667 42.667s42.667-19.2 42.667-42.667v-298.667zM426.667 704h256v-128h-256v128zM853.333 192h-512v298.667h469.333c23.467 0 42.667-19.2 42.667-42.667v-256zM682.667 405.333c0-23.564-19.103-42.667-42.667-42.667s-42.667 19.103-42.667 42.667c0 23.564 19.103 42.667 42.667 42.667s42.667-19.103 42.667-42.667zM810.667 405.333c0-23.564-19.103-42.667-42.667-42.667s-42.667 19.103-42.667 42.667c0 23.564 19.103 42.667 42.667 42.667s42.667-19.103 42.667-42.667zM682.667 277.333c0-23.564-19.103-42.667-42.667-42.667s-42.667 19.103-42.667 42.667c0 23.564 19.103 42.667 42.667 42.667s42.667-19.103 42.667-42.667zM810.667 277.333c0-23.564-19.103-42.667-42.667-42.667s-42.667 19.103-42.667 42.667c0 23.564 19.103 42.667 42.667 42.667s42.667-19.103 42.667-42.667zM384 448h170.667v-213.333h-170.667v213.333z" />
<glyph unicode="&#xe93b;" glyph-name="feedback_black_24dp1" d="M853.333 874.667h-682.667c-46.933 0-84.907-38.4-84.907-85.333l-0.427-768 170.667 170.667h597.333c46.933 0 85.333 38.4 85.333 85.333v512c0 46.933-38.4 85.333-85.333 85.333zM853.333 277.333h-632.747l-49.92-49.92v561.92h682.667v-512zM469.333 448h85.333v-85.333h-85.333zM469.333 704h85.333v-170.667h-85.333z" />
<glyph unicode="&#xe93c;" glyph-name="file_download_black_24dp1" d="M768 320v-128h-512v128h-85.333v-128c0-46.933 38.4-85.333 85.333-85.333h512c46.933 0 85.333 38.4 85.333 85.333v128h-85.333zM725.333 490.667l-60.16 60.16-110.507-110.080v348.587h-85.333v-348.587l-110.507 110.080-60.16-60.16 213.333-213.333 213.333 213.333z" />
<glyph unicode="&#xe93d;" glyph-name="file_download_done_black_24dp1" d="M858.88 729.173l-60.16 60.16-392.107-392.107-181.333 180.907-60.16-60.16 241.493-241.493zM213.333 192h597.333v-85.333h-597.333v85.333z" />
<glyph unicode="&#xe93e;" glyph-name="file_upload_black_24dp1" d="M768 320v-128h-512v128h-85.333v-128c0-46.933 38.4-85.333 85.333-85.333h512c46.933 0 85.333 38.4 85.333 85.333v128h-85.333zM298.667 576l60.16-60.16 110.507 110.080v-348.587h85.333v348.587l110.507-110.080 60.16 60.16-213.333 213.333-213.333-213.333z" />
<glyph unicode="&#xe93f;" glyph-name="filter_alt_black_24dp1" d="M298.667 704h426.667l-213.76-268.8-212.907 268.8zM181.333 720.64c86.187-110.507 245.333-315.307 245.333-315.307v-256c0-23.467 19.2-42.667 42.667-42.667h85.333c23.467 0 42.667 19.2 42.667 42.667v256c0 0 158.72 204.8 244.907 315.307 21.76 28.16 1.707 68.693-33.707 68.693h-593.493c-35.413 0-55.467-40.533-33.707-68.693z" />
<glyph unicode="&#xe940;" glyph-name="folder_black_24dp1" d="M391.253 704l85.333-85.333h376.747v-426.667h-682.667v512h220.587zM426.667 789.333h-256c-46.933 0-84.907-38.4-84.907-85.333l-0.427-512c0-46.933 38.4-85.333 85.333-85.333h682.667c46.933 0 85.333 38.4 85.333 85.333v426.667c0 46.933-38.4 85.333-85.333 85.333h-341.333l-85.333 85.333z" />
<glyph unicode="&#xe941;" glyph-name="grade_black_24dp1" d="M512 655.787l61.44-145.067 51.2-4.267 105.387-8.96-119.040-103.253 11.52-50.347 23.893-102.827-90.453 54.613-43.947 27.307-43.947-26.453-90.453-54.613 23.893 102.827 11.52 50.347-119.040 103.253 156.587 13.227 20.053 47.36 41.387 96.853zM512 874.667l-119.893-282.88-306.773-26.027 232.96-201.813-69.973-299.947 263.68 159.147 263.68-159.147-69.973 299.947 232.96 201.813-306.773 26.027-119.893 282.88z" />
<glyph unicode="&#xe942;" glyph-name="grid_view_black_24dp1" d="M128 832v-341.333h341.333v341.333h-341.333zM384 576h-170.667v170.667h170.667v-170.667zM128 405.333v-341.333h341.333v341.333h-341.333zM384 149.333h-170.667v170.667h170.667v-170.667zM554.667 832v-341.333h341.333v341.333h-341.333zM810.667 576h-170.667v170.667h170.667v-170.667zM554.667 405.333v-341.333h341.333v341.333h-341.333zM810.667 149.333h-170.667v170.667h170.667v-170.667z" />
<glyph unicode="&#xe943;" glyph-name="help_black_24dp1" d="M512 874.667c-235.52 0-426.667-191.147-426.667-426.667s191.147-426.667 426.667-426.667 426.667 191.147 426.667 426.667-191.147 426.667-426.667 426.667zM554.667 149.333h-85.333v85.333h85.333v-85.333zM642.987 480l-38.4-39.253c-30.72-31.147-49.92-56.747-49.92-120.747h-85.333v21.333c0 46.933 19.2 89.6 49.92 120.747l52.907 53.76c15.787 15.36 25.173 36.693 25.173 60.16 0 46.933-38.4 85.333-85.333 85.333s-85.333-38.4-85.333-85.333h-85.333c0 94.293 76.373 170.667 170.667 170.667s170.667-76.373 170.667-170.667c0-37.547-15.36-71.68-39.68-96z" />
<glyph unicode="&#xe944;" glyph-name="history_black_24dp1" d="M554.667 832c-212.053 0-384-171.947-384-384h-128l165.973-165.973 2.987-5.973 172.373 171.947h-128c0 165.12 133.547 298.667 298.667 298.667s298.667-133.547 298.667-298.667-133.547-298.667-298.667-298.667c-82.347 0-157.013 33.707-210.773 87.893l-60.587-60.587c69.547-69.547 165.12-112.64 271.36-112.64 212.053 0 384 171.947 384 384s-171.947 384-384 384zM512 618.667v-213.333l181.333-107.52 32.853 54.613-150.187 89.173v177.067z" />
<glyph unicode="&#xe945;" glyph-name="home_black_24dp1" d="M512 717.227l213.333-192v-333.227h-85.333v256h-256v-256h-85.333v333.227l213.333 192zM512 832l-426.667-384h128v-341.333h256v256h85.333v-256h256v341.333h128l-426.667 384z" />
<glyph unicode="&#xe946;" glyph-name="info_black_24dp1" d="M469.333 661.333h85.333v-85.333h-85.333zM469.333 490.667h85.333v-256h-85.333zM512 874.667c-235.52 0-426.667-191.147-426.667-426.667s191.147-426.667 426.667-426.667 426.667 191.147 426.667 426.667-191.147 426.667-426.667 426.667zM512 106.667c-188.16 0-341.333 153.173-341.333 341.333s153.173 341.333 341.333 341.333 341.333-153.173 341.333-341.333-153.173-341.333-341.333-341.333z" />
<glyph unicode="&#xe947;" glyph-name="label_black_24dp1" d="M752.213 710.827c-15.36 21.76-40.96 35.84-69.547 35.84l-469.333-0.427c-46.933 0-85.333-37.973-85.333-84.907v-426.667c0-46.933 38.4-84.907 85.333-84.907l469.333-0.427c28.587 0 54.187 14.080 69.547 35.84l186.453 262.827-186.453 262.827zM682.667 234.667h-469.333v426.667h469.333l151.467-213.333-151.467-213.333z" />
<glyph unicode="&#xe948;" glyph-name="link_black_24dp1" d="M725.333 661.333h-170.667v-85.333h170.667c70.4 0 128-57.6 128-128s-57.6-128-128-128h-170.667v-85.333h170.667c117.76 0 213.333 95.573 213.333 213.333s-95.573 213.333-213.333 213.333zM469.333 320h-170.667c-70.4 0-128 57.6-128 128s57.6 128 128 128h170.667v85.333h-170.667c-117.76 0-213.333-95.573-213.333-213.333s95.573-213.333 213.333-213.333h170.667v85.333zM341.333 490.667h341.333v-85.333h-341.333z" />
<glyph unicode="&#xe949;" glyph-name="local_shipping_black_24dp1" d="M853.333 618.667h-128v170.667h-597.333c-46.933 0-85.333-38.4-85.333-85.333v-469.333h85.333c0-70.827 57.173-128 128-128s128 57.173 128 128h256c0-70.827 57.173-128 128-128s128 57.173 128 128h85.333v213.333l-128 170.667zM832 554.667l83.627-106.667h-190.293v106.667h106.667zM256 192c-23.467 0-42.667 19.2-42.667 42.667s19.2 42.667 42.667 42.667 42.667-19.2 42.667-42.667-19.2-42.667-42.667-42.667zM350.72 320c-23.467 26.027-56.747 42.667-94.72 42.667s-71.253-16.64-94.72-42.667h-33.28v384h512v-384h-289.28zM768 192c-23.467 0-42.667 19.2-42.667 42.667s19.2 42.667 42.667 42.667 42.667-19.2 42.667-42.667-19.2-42.667-42.667-42.667z" />
<glyph unicode="&#xe94a;" glyph-name="location_on_black_24dp1" d="M512 874.667c-165.12 0-298.667-133.547-298.667-298.667 0-224 298.667-554.667 298.667-554.667s298.667 330.667 298.667 554.667c0 165.12-133.547 298.667-298.667 298.667zM298.667 576c0 117.76 95.573 213.333 213.333 213.333s213.333-95.573 213.333-213.333c0-122.88-122.88-306.773-213.333-421.547-88.747 113.92-213.333 299.947-213.333 421.547zM618.667 576c0-58.91-47.756-106.667-106.667-106.667s-106.667 47.756-106.667 106.667c0 58.91 47.756 106.667 106.667 106.667s106.667-47.756 106.667-106.667z" />
<glyph unicode="&#xe94b;" glyph-name="mail_black_24dp1" d="M938.667 704c0 46.933-38.4 85.333-85.333 85.333h-682.667c-46.933 0-85.333-38.4-85.333-85.333v-512c0-46.933 38.4-85.333 85.333-85.333h682.667c46.933 0 85.333 38.4 85.333 85.333v512zM853.333 704l-341.333-212.907-341.333 212.907h682.667zM853.333 192h-682.667v426.667l341.333-213.333 341.333 213.333v-426.667z" />
<glyph unicode="&#xe94c;" glyph-name="mail_lock_black_24dp1" d="M170.667 618.667l341.333-213.333 341.333 213.333v-85.333h85.333v170.667c0 46.933-38.4 85.333-85.333 85.333h-682.667c-46.933 0-84.907-38.4-84.907-85.333l-0.427-512c0-46.933 38.4-85.333 85.333-85.333h512v85.333h-512v426.667zM853.333 704l-341.333-213.333-341.333 213.333h682.667zM981.333 320v42.667c0 46.933-38.4 85.333-85.333 85.333s-85.333-38.4-85.333-85.333v-42.667c-23.467 0-42.667-19.2-42.667-42.667v-128c0-23.467 19.2-42.667 42.667-42.667h170.667c23.467 0 42.667 19.2 42.667 42.667v128c0 23.467-19.2 42.667-42.667 42.667zM853.333 320v42.667c0 23.467 19.2 42.667 42.667 42.667s42.667-19.2 42.667-42.667v-42.667h-85.333z" />
<glyph unicode="&#xe94d;" glyph-name="manage_accounts_black_24dp1" d="M170.667 192v27.733c0 14.507 6.827 28.16 17.493 34.56 72.107 43.093 154.453 65.707 238.507 65.707 1.28 0 2.133 0 3.413-0.427 4.267 29.867 12.8 58.453 25.173 84.48-9.387 0.853-18.773 1.28-28.587 1.28-103.253 0-199.68-28.587-282.027-77.653-37.547-22.187-59.307-64-59.307-107.947v-113.067h395.093c-17.92 25.6-32 54.613-41.387 85.333h-268.373zM426.667 448c94.293 0 170.667 76.373 170.667 170.667s-76.373 170.667-170.667 170.667c-94.293 0-170.667-76.373-170.667-170.667s76.373-170.667 170.667-170.667zM426.667 704c46.933 0 85.333-38.4 85.333-85.333s-38.4-85.333-85.333-85.333c-46.933 0-85.333 38.4-85.333 85.333s38.4 85.333 85.333 85.333zM885.333 277.333c0 9.387-1.28 17.92-2.56 26.88l48.64 43.093-42.667 73.813-61.867-20.907c-13.653 11.52-29.013 20.48-46.080 26.88l-12.8 63.573h-85.333l-12.8-63.573c-17.067-6.4-32.427-15.36-46.080-26.88l-61.867 20.907-42.667-73.813 48.64-43.093c-1.28-8.96-2.56-17.493-2.56-26.88s1.28-17.92 2.56-26.88l-48.64-43.093 42.667-73.813 61.867 20.907c13.653-11.52 29.013-20.48 46.080-26.88l12.8-63.573h85.333l12.8 63.573c17.067 6.4 32.427 15.36 46.080 26.88l61.867-20.907 42.667 73.813-48.64 43.093c1.28 8.96 2.56 17.493 2.56 26.88zM725.333 192c-46.933 0-85.333 38.4-85.333 85.333s38.4 85.333 85.333 85.333 85.333-38.4 85.333-85.333-38.4-85.333-85.333-85.333z" />
<glyph unicode="&#xe94e;" glyph-name="mark_email_read_black_24dp1" d="M853.333 789.333h-682.667c-46.933 0-84.907-38.4-84.907-85.333l-0.427-512c0-46.933 38.4-85.333 85.333-85.333h341.333v85.333h-341.333v426.667l341.333-213.333 341.333 213.333v-213.333h85.333v298.667c0 46.933-38.4 85.333-85.333 85.333zM512 490.667l-341.333 213.333h682.667l-341.333-213.333zM739.84 21.333l-151.040 151.040 60.16 60.16 90.453-90.453 180.907 180.907 61.013-60.16-241.493-241.493z" />
<glyph unicode="&#xe94f;" glyph-name="mark_email_unread_black_24dp1" d="M938.667 576.853v-384.853c0-46.933-38.4-85.333-85.333-85.333h-682.667c-46.933 0-85.333 38.4-85.333 85.333l0.427 512c0 46.933 37.973 85.333 84.907 85.333h430.933c-2.56-13.653-4.267-28.16-4.267-42.667s1.707-29.013 4.267-42.667h-430.933l341.333-213.333 156.587 97.707c20.053-18.347 43.52-32.427 69.547-41.813l-226.133-141.227-341.333 213.333v-426.667h682.667v345.6c31.573 6.4 60.587 20.48 85.333 39.253zM682.667 746.667c0-70.827 57.173-128 128-128s128 57.173 128 128-57.173 128-128 128-128-57.173-128-128z" />
<glyph unicode="&#xe950;" glyph-name="menu_black_24dp1" d="M128 192h768v85.333h-768v-85.333zM128 405.333h768v85.333h-768v-85.333zM128 704v-85.333h768v85.333h-768z" />
<glyph unicode="&#xe951;" glyph-name="menu_book_black_24dp1" d="M896 746.667c-47.36 14.933-99.413 21.333-149.333 21.333-83.2 0-172.8-17.067-234.667-64-61.867 46.933-151.467 64-234.667 64s-172.8-17.067-234.667-64v-625.067c0-10.667 10.667-21.333 21.333-21.333 4.267 0 6.4 2.133 10.667 2.133 57.6 27.733 140.8 46.933 202.667 46.933 83.2 0 172.8-17.067 234.667-64 57.6 36.267 162.133 64 234.667 64 70.4 0 142.933-12.8 202.667-44.8 4.267-2.133 6.4-2.133 10.667-2.133 10.667 0 21.333 10.667 21.333 21.333v622.933c-25.6 19.2-53.333 32-85.333 42.667zM896 170.667c-46.933 14.933-98.133 21.333-149.333 21.333-72.533 0-177.067-27.733-234.667-64v490.667c57.6 36.267 162.133 64 234.667 64 51.2 0 102.4-6.4 149.333-21.333v-490.667zM746.667 512c37.547 0 73.813-3.84 106.667-11.093v64.853c-33.707 6.4-69.973 10.24-106.667 10.24-72.533 0-138.24-12.373-192-35.413v-70.827c48.213 27.307 115.2 42.24 192 42.24zM554.667 427.093v-70.827c48.213 27.307 115.2 42.24 192 42.24 37.547 0 73.813-3.84 106.667-11.093v64.853c-33.707 6.4-69.973 10.24-106.667 10.24-72.533 0-138.24-12.8-192-35.413zM746.667 348.587c-72.533 0-138.24-12.373-192-35.413v-70.827c48.213 27.307 115.2 42.24 192 42.24 37.547 0 73.813-3.84 106.667-11.093v64.853c-33.707 6.827-69.973 10.24-106.667 10.24z" />
<glyph unicode="&#xe952;" glyph-name="more_horiz_black_24dp1" d="M256 533.333c-46.933 0-85.333-38.4-85.333-85.333s38.4-85.333 85.333-85.333 85.333 38.4 85.333 85.333-38.4 85.333-85.333 85.333zM768 533.333c-46.933 0-85.333-38.4-85.333-85.333s38.4-85.333 85.333-85.333 85.333 38.4 85.333 85.333-38.4 85.333-85.333 85.333zM512 533.333c-46.933 0-85.333-38.4-85.333-85.333s38.4-85.333 85.333-85.333 85.333 38.4 85.333 85.333-38.4 85.333-85.333 85.333z" />
<glyph unicode="&#xe953;" glyph-name="more_vert_black_24dp1" d="M512 618.667c46.933 0 85.333 38.4 85.333 85.333s-38.4 85.333-85.333 85.333-85.333-38.4-85.333-85.333 38.4-85.333 85.333-85.333zM512 533.333c-46.933 0-85.333-38.4-85.333-85.333s38.4-85.333 85.333-85.333 85.333 38.4 85.333 85.333-38.4 85.333-85.333 85.333zM512 277.333c-46.933 0-85.333-38.4-85.333-85.333s38.4-85.333 85.333-85.333 85.333 38.4 85.333 85.333-38.4 85.333-85.333 85.333z" />
<glyph unicode="&#xe954;" glyph-name="move_to_inbox_black_24dp1" d="M682.667 576h-108.8v128h-123.733v-128h-108.8l170.667-170.667zM810.667 832h-597.76c-47.36 0-84.907-38.4-84.907-85.333v-597.333c0-46.933 37.547-85.333 84.907-85.333h597.76c46.933 0 85.333 38.4 85.333 85.333v597.333c0 46.933-38.4 85.333-85.333 85.333zM810.667 149.333h-597.333v128h151.893c29.44-50.773 84.053-85.333 147.2-85.333s117.333 34.56 147.2 85.333h151.040v-128zM810.667 362.667h-212.907c0-46.933-38.4-85.333-85.333-85.333s-85.333 38.4-85.333 85.333h-213.76l-0.427 384h597.76v-384z" />
<glyph unicode="&#xe955;" glyph-name="no_accounts_black_24dp1" d="M647.68 493.227c8.533 18.773 13.653 39.253 13.653 61.44 0 82.347-66.987 149.333-149.333 149.333-22.187 0-42.667-5.12-61.44-13.653l197.12-197.12zM512 874.667c-235.52 0-426.667-191.147-426.667-426.667s191.147-426.667 426.667-426.667 426.667 191.147 426.667 426.667-191.147 426.667-426.667 426.667zM170.667 448c0 78.933 26.88 151.467 72.107 209.067l122.027-122.027c8.96-66.56 61.013-119.040 127.573-127.573l93.867-93.867c-24.32 4.267-49.067 6.4-74.24 6.4-98.987 0-189.867-34.133-261.973-90.453-49.493 59.307-79.36 135.253-79.36 218.453zM512 106.667c-74.24 0-142.507 23.893-198.4 64 55.893 40.107 124.16 64 198.4 64s142.507-23.893 198.4-64c-55.893-40.107-124.16-64-198.4-64zM781.227 238.933l-478.293 478.293c57.6 45.227 130.133 72.107 209.067 72.107 188.587 0 341.333-152.747 341.333-341.333 0-78.933-26.88-151.040-72.107-209.067z" />
<glyph unicode="&#xe956;" glyph-name="note_add_black_24dp1" d="M554.667 490.667h-85.333v-128h-128v-85.333h128v-128h85.333v128h128v85.333h-128zM597.333 874.667h-341.333c-46.933 0-85.333-38.4-85.333-85.333v-682.667c0-46.933 37.973-85.333 84.907-85.333h512.427c46.933 0 85.333 38.4 85.333 85.333v512l-256 256zM768 106.667h-512v682.667h298.667v-213.333h213.333v-469.333z" />
<glyph unicode="&#xe957;" glyph-name="notification_add_black_24dp1" d="M682.667 362.667v-128h-341.333v298.667c0 94.293 76.373 170.667 170.667 170.667 36.267 0 69.973-11.093 97.28-30.72l61.013 61.013c-27.307 21.76-59.307 37.547-94.293 46.507v29.867c0 35.413-28.587 64-64 64s-64-28.587-64-64v-29.867c-110.507-28.16-192-128.427-192-247.467v-298.667h-85.333v-85.333h682.667v85.333h-85.333v128h-85.333zM512 21.333c46.933 0 85.333 38.4 85.333 85.333h-170.667c0-46.933 38.4-85.333 85.333-85.333zM1024 618.667h-128v128h-85.333v-128h-128v-85.333h128v-128h85.333v128h128v85.333z" />
<glyph unicode="&#xe958;" glyph-name="notifications_active_black_24dp1" d="M512 21.333c46.933 0 85.333 38.4 85.333 85.333h-170.667c0-46.933 38.4-85.333 85.333-85.333zM768 277.333v213.333c0 130.987-69.547 240.64-192 269.653v29.013c0 35.413-28.587 64-64 64s-64-28.587-64-64v-29.013c-122.027-29.013-192-138.24-192-269.653v-213.333l-85.333-85.333v-42.667h682.667v42.667l-85.333 85.333zM682.667 234.667h-341.333v256c0 105.813 64.427 192 170.667 192s170.667-86.187 170.667-192v-256zM323.413 785.92l-61.013 61.013c-102.4-78.080-169.813-198.4-175.787-334.933h85.333c6.4 113.067 64.427 212.053 151.467 273.92zM852.053 512h85.333c-6.4 136.533-73.813 256.853-175.787 334.933l-60.587-61.013c86.187-61.867 144.64-160.853 151.040-273.92z" />
<glyph unicode="&#xe959;" glyph-name="notifications_black_24dp1" d="M512 21.333c46.933 0 85.333 38.4 85.333 85.333h-170.667c0-46.933 38.4-85.333 85.333-85.333zM768 277.333v213.333c0 130.987-69.547 240.64-192 269.653v29.013c0 35.413-28.587 64-64 64s-64-28.587-64-64v-29.013c-122.027-29.013-192-138.24-192-269.653v-213.333l-85.333-85.333v-42.667h682.667v42.667l-85.333 85.333zM682.667 234.667h-341.333v256c0 105.813 64.427 192 170.667 192s170.667-86.187 170.667-192v-256z" />
<glyph unicode="&#xe95a;" glyph-name="notifications_off_black_24dp1" d="M512 21.333c46.933 0 85.333 38.4 85.333 85.333h-170.667c0-46.933 38.4-85.333 85.333-85.333zM512 682.667c106.24 0 170.667-86.187 170.667-192v-4.267l85.333-85.333v89.6c0 130.987-69.547 240.64-192 269.653v29.013c0 35.413-28.587 64-64 64s-64-28.587-64-64v-29.013c-10.24-2.56-20.053-6.4-29.44-9.813l69.973-69.973c7.68 0.853 15.36 2.133 23.467 2.133zM230.827 817.067l-60.16-60.16 119.893-119.893c-22.187-42.667-34.56-92.587-34.56-146.347v-213.333l-85.333-85.333v-42.667h607.573l74.24-74.24 60.16 60.16-681.813 681.813zM682.667 234.667h-341.333v256c0 29.013 5.12 56.32 14.507 81.067l326.827-326.827v-10.24z" />
<glyph unicode="&#xe95b;" glyph-name="palette_black_24dp1" d="M512 21.333c-235.093 0-426.667 191.573-426.667 426.667s191.573 426.667 426.667 426.667 426.667-172.373 426.667-384c0-141.227-114.773-256-256-256h-75.52c-11.947 0-21.333-9.387-21.333-21.333 0-5.12 2.133-9.813 5.547-14.080 17.493-20.053 27.307-45.227 27.307-71.253 0-58.88-47.787-106.667-106.667-106.667zM512 789.333c-188.16 0-341.333-153.173-341.333-341.333s153.173-341.333 341.333-341.333c11.947 0 21.333 9.387 21.333 21.333 0 6.827-3.413 11.947-5.973 14.933-17.493 19.627-26.88 44.8-26.88 70.4 0 58.88 47.787 106.667 106.667 106.667h75.52c94.293 0 170.667 76.373 170.667 170.667 0 164.693-153.173 298.667-341.333 298.667zM341.333 469.333c0-35.346-28.654-64-64-64s-64 28.654-64 64c0 35.346 28.654 64 64 64s64-28.654 64-64zM469.333 640c0-35.346-28.654-64-64-64s-64 28.654-64 64c0 35.346 28.654 64 64 64s64-28.654 64-64zM682.667 640c0-35.346-28.654-64-64-64s-64 28.654-64 64c0 35.346 28.654 64 64 64s64-28.654 64-64zM810.667 469.333c0-35.346-28.654-64-64-64s-64 28.654-64 64c0 35.346 28.654 64 64 64s64-28.654 64-64z" />
<glyph unicode="&#xe95c;" glyph-name="payments_black_24dp1" d="M810.667 362.667v341.333c0 46.933-38.4 85.333-85.333 85.333h-597.333c-46.933 0-85.333-38.4-85.333-85.333v-341.333c0-46.933 38.4-85.333 85.333-85.333h597.333c46.933 0 85.333 38.4 85.333 85.333zM725.333 362.667h-597.333v341.333h597.333v-341.333zM426.667 661.333c-70.827 0-128-57.173-128-128s57.173-128 128-128 128 57.173 128 128-57.173 128-128 128zM981.333 661.333v-469.333c0-46.933-38.4-85.333-85.333-85.333h-725.333v85.333h725.333v469.333h85.333z" />
<glyph unicode="&#xe95d;" glyph-name="phone_black_24dp1" d="M279.040 746.667c2.56-37.973 8.96-75.093 19.2-110.507l-51.2-51.2c-17.493 51.2-28.587 105.387-32.427 161.707h64.427zM699.733 233.813c36.267-10.24 73.387-16.64 110.933-19.2v-63.573c-56.32 3.84-110.507 14.933-162.133 32l51.2 50.773zM320 832h-149.333c-23.467 0-42.667-19.2-42.667-42.667 0-400.64 324.693-725.333 725.333-725.333 23.467 0 42.667 19.2 42.667 42.667v148.907c0 23.467-19.2 42.667-42.667 42.667-52.907 0-104.533 8.533-152.32 24.32-4.267 1.707-8.96 2.133-13.227 2.133-11.093 0-21.76-4.267-30.293-12.373l-93.867-93.867c-120.747 61.867-219.733 160.427-281.173 281.173l93.867 93.867c11.947 11.947 15.36 28.587 10.667 43.52-15.787 47.787-24.32 98.987-24.32 152.32 0 23.467-19.2 42.667-42.667 42.667z" />
<glyph unicode="&#xe95e;" glyph-name="picture_as_pdf_black_24dp1" d="M853.333 874.667h-512c-46.933 0-85.333-38.4-85.333-85.333v-512c0-46.933 38.4-85.333 85.333-85.333h512c46.933 0 85.333 38.4 85.333 85.333v512c0 46.933-38.4 85.333-85.333 85.333zM853.333 277.333h-512v512h512v-512zM170.667 704h-85.333v-597.333c0-46.933 38.4-85.333 85.333-85.333h597.333v85.333h-597.333v597.333zM682.667 448v128c0 23.467-19.2 42.667-42.667 42.667h-85.333v-213.333h85.333c23.467 0 42.667 19.2 42.667 42.667zM597.333 576h42.667v-128h-42.667v128zM768 490.667h42.667v42.667h-42.667v42.667h42.667v42.667h-85.333v-213.333h42.667zM426.667 490.667h42.667c23.467 0 42.667 19.2 42.667 42.667v42.667c0 23.467-19.2 42.667-42.667 42.667h-85.333v-213.333h42.667v85.333zM426.667 576h42.667v-42.667h-42.667v42.667z" />
<glyph unicode="&#xe95f;" glyph-name="print_black_24dp1" d="M810.667 618.667h-42.667v213.333h-512v-213.333h-42.667c-70.827 0-128-57.173-128-128v-256h170.667v-170.667h512v170.667h170.667v256c0 70.827-57.173 128-128 128zM341.333 746.667h341.333v-128h-341.333v128zM682.667 234.667v-85.333h-341.333v170.667h341.333v-85.333zM768 320v85.333h-512v-85.333h-85.333v170.667c0 23.467 19.2 42.667 42.667 42.667h597.333c23.467 0 42.667-19.2 42.667-42.667v-170.667h-85.333zM810.667 469.333c0-23.564-19.103-42.667-42.667-42.667s-42.667 19.103-42.667 42.667c0 23.564 19.103 42.667 42.667 42.667s42.667-19.103 42.667-42.667z" />
<glyph unicode="&#xe960;" glyph-name="question_mark_black_24dp1" d="M472.32 411.733c32.853 59.307 96 94.293 132.693 146.773 38.827 55.040 17.067 157.867-93.013 157.867-72.107 0-107.52-54.613-122.453-99.84l-110.507 46.507c30.293 90.88 112.64 168.96 232.533 168.96 100.267 0 168.96-45.653 203.947-102.827 29.867-49.067 47.36-140.8 1.28-209.067-51.2-75.52-100.267-98.56-126.72-147.2-10.667-19.627-14.933-32.427-14.933-95.573h-123.307c-0.427 33.28-5.547 87.467 20.48 134.4zM597.333 106.667c0-46.933-38.4-85.333-85.333-85.333s-85.333 38.4-85.333 85.333c0 46.933 38.4 85.333 85.333 85.333s85.333-38.4 85.333-85.333z" />
<glyph unicode="&#xe961;" glyph-name="receipt_black_24dp1" d="M832 810.667l-64 64-64-64-64 64-64-64-64 64-64-64-64 64-64-64-64 64-64-64-64 64v-853.333l64 64 64-64 64 64 64-64 64 64 64-64 64 64 64-64 64 64 64-64 64 64 64-64v853.333l-64-64zM810.667 145.493h-597.333v605.013h597.333v-605.013zM256 320h512v-85.333h-512zM256 490.667h512v-85.333h-512zM256 661.333h512v-85.333h-512z" />
<glyph unicode="&#xe962;" glyph-name="account_balance_black_24dp" d="M277.333 512h-85.333v-298.667h85.333v298.667zM533.333 512h-85.333v-298.667h85.333v298.667zM896 128h-810.667v-85.333h810.667v85.333zM789.333 512h-85.333v-298.667h85.333v298.667zM490.667 799.574l222.293-116.907h-444.587l222.293 116.907zM490.667 896l-405.333-213.333v-85.333h810.667v85.333l-405.333 213.333z" />
<glyph unicode="&#xe963;" glyph-name="remove_circle_outline_black_24dp1" d="M298.667 490.667v-85.333h426.667v85.333h-426.667zM512 874.667c-235.52 0-426.667-191.147-426.667-426.667s191.147-426.667 426.667-426.667 426.667 191.147 426.667 426.667-191.147 426.667-426.667 426.667zM512 106.667c-188.16 0-341.333 153.173-341.333 341.333s153.173 341.333 341.333 341.333 341.333-153.173 341.333-341.333-153.173-341.333-341.333-341.333z" />
<glyph unicode="&#xe964;" glyph-name="save_as_black_24dp1" d="M896 430.933v230.4l-170.667 170.667h-512c-47.36 0-85.333-38.4-85.333-85.333v-597.333c0-46.933 37.973-85.333 85.333-85.333h315.733l85.333 85.333h-401.067v597.333h476.587l120.747-120.747v-280.32l85.333 85.333zM640 320c0-70.827-57.173-128-128-128s-128 57.173-128 128 57.173 128 128 128 128-57.173 128-128zM256 704h384v-170.667h-384v170.667zM852.907 266.667l75.52-75.52-212.907-212.48h-75.52v75.52l212.907 212.48zM992 255.573l-36.267-36.267-75.52 75.52 36.267 36.267c8.533 8.533 21.76 8.533 30.293 0l45.227-45.227c8.533-8.533 8.533-22.187 0-30.293z" />
<glyph unicode="&#xe965;" glyph-name="savings_black_24dp1" d="M640 533.333c0 23.467 19.2 42.667 42.667 42.667s42.667-19.2 42.667-42.667c0-23.467-19.2-42.667-42.667-42.667s-42.667 19.2-42.667 42.667zM341.333 576h213.333v85.333h-213.333v-85.333zM938.667 640v-297.387l-120.32-40.107-71.68-238.507h-234.667v85.333h-85.333v-85.333h-234.667c0 0-106.667 360.96-106.667 490.667s104.96 234.667 234.667 234.667h213.333c38.827 51.627 100.693 85.333 170.667 85.333 35.413 0 64-28.587 64-64 0-8.96-1.707-17.067-5.12-24.747-5.973-14.507-11.093-31.147-13.653-49.067l96.853-96.853h92.587zM853.333 554.667h-42.667l-149.333 149.333c0 27.733 3.84 55.040 11.093 81.493-41.387-10.667-75.093-41.387-89.173-81.493h-263.253c-82.347 0-149.333-66.987-149.333-149.333 0-80.213 52.053-283.733 85.76-405.333h84.907v85.333h256v-85.333h85.76l66.133 219.733 104.107 34.987v150.613z" />
<glyph unicode="&#xe966;" glyph-name="schedule_black_24dp1" d="M511.573 874.667c-235.52 0-426.24-191.147-426.24-426.667s190.72-426.667 426.24-426.667c235.947 0 427.093 191.147 427.093 426.667s-191.147 426.667-427.093 426.667zM512 106.667c-188.587 0-341.333 152.747-341.333 341.333s152.747 341.333 341.333 341.333 341.333-152.747 341.333-341.333-152.747-341.333-341.333-341.333zM533.333 661.333h-64v-256l224-134.4 32 52.48-192 113.92z" />
<glyph unicode="&#xe967;" glyph-name="school_black_24dp1" d="M512 832l-469.333-256 170.667-93.013v-256l298.667-162.987 298.667 162.987v256l85.333 46.507v-294.827h85.333v341.333l-469.333 256zM802.987 576l-290.987-158.72-290.987 158.72 290.987 158.72 290.987-158.72zM725.333 277.76l-213.333-116.48-213.333 116.48v158.72l213.333-116.48 213.333 116.48v-158.72z" />
<glyph unicode="&#xe968;" glyph-name="search_black_24dp1" d="M661.333 362.667h-33.707l-11.947 11.52c41.813 48.64 66.987 111.787 66.987 180.48 0 153.173-124.16 277.333-277.333 277.333s-277.333-124.16-277.333-277.333 124.16-277.333 277.333-277.333c68.693 0 131.84 25.173 180.48 66.987l11.52-11.947v-33.707l213.333-212.907 63.573 63.573-212.907 213.333zM405.333 362.667c-106.24 0-192 85.76-192 192s85.76 192 192 192 192-85.76 192-192-85.76-192-192-192z" />
<glyph unicode="&#xe969;" glyph-name="sell_black_24dp1" d="M913.493 473.173l-376.747 376.747c-15.787 15.787-37.547 24.747-60.16 24.747h-305.92c-46.933 0-85.333-38.4-85.333-85.333v-305.92c0-22.613 8.96-44.373 25.173-60.16l376.747-376.747c33.28-33.28 87.467-33.28 120.747 0l305.92 305.92c33.28 33.28 33.28 87.040-0.427 120.747zM547.413 106.667l-376.747 376.747v305.92h305.92l376.747-376.747-305.92-305.92zM341.333 682.667c0-35.346-28.654-64-64-64s-64 28.654-64 64c0 35.346 28.654 64 64 64s64-28.654 64-64z" />
<glyph unicode="&#xe96a;" glyph-name="send_black_24dp1" d="M171.093 702.72l320.427-137.387-320.853 42.667 0.427 94.72zM491.093 330.667l-320.427-137.387v94.72l320.427 42.667zM85.76 832l-0.427-298.667 640-85.333-640-85.333 0.427-298.667 895.573 384-895.573 384z" />
<glyph unicode="&#xe96b;" glyph-name="settings_black_24dp1" d="M829.013 406.187c1.707 13.653 2.987 27.307 2.987 41.813s-1.28 28.16-2.987 41.813l90.027 70.4c8.107 6.4 10.24 17.92 5.12 27.307l-85.333 147.627c-3.84 6.827-11.093 10.667-18.773 10.667-2.56 0-5.12-0.427-7.253-1.28l-106.24-42.667c-22.187 17.067-46.080 31.147-72.107 41.813l-16.213 113.067c-1.28 10.24-10.24 17.92-20.907 17.92h-170.667c-10.667 0-19.627-7.68-20.907-17.92l-16.213-113.067c-26.027-10.667-49.92-25.173-72.107-41.813l-106.24 42.667c-2.56 0.853-5.12 1.28-7.68 1.28-7.253 0-14.507-3.84-18.347-10.667l-85.333-147.627c-5.547-9.387-2.987-20.907 5.12-27.307l90.027-70.4c-1.707-13.653-2.987-27.733-2.987-41.813s1.28-28.16 2.987-41.813l-90.027-70.4c-8.107-6.4-10.24-17.92-5.12-27.307l85.333-147.627c3.84-6.827 11.093-10.667 18.773-10.667 2.56 0 5.12 0.427 7.253 1.28l106.24 42.667c22.187-17.067 46.080-31.147 72.107-41.813l16.213-113.067c1.28-10.24 10.24-17.92 20.907-17.92h170.667c10.667 0 19.627 7.68 20.907 17.92l16.213 113.067c26.027 10.667 49.92 25.173 72.107 41.813l106.24-42.667c2.56-0.853 5.12-1.28 7.68-1.28 7.253 0 14.507 3.84 18.347 10.667l85.333 147.627c5.12 9.387 2.987 20.907-5.12 27.307l-90.027 70.4zM744.533 479.147c1.707-13.227 2.133-22.187 2.133-31.147s-0.853-18.347-2.133-31.147l-5.973-48.213 37.973-29.867 46.080-35.84-29.867-51.627-54.187 21.76-44.373 17.92-38.4-29.013c-18.347-13.653-35.84-23.893-53.333-31.147l-45.227-18.347-6.827-48.213-8.533-57.6h-59.733l-8.107 57.6-6.827 48.213-45.227 18.347c-18.347 7.68-35.413 17.493-52.48 30.293l-38.827 29.867-45.227-18.347-54.187-21.76-29.867 51.627 46.080 35.84 37.973 29.867-5.973 48.213c-1.28 13.227-2.133 23.040-2.133 31.573s0.853 18.347 2.133 31.147l5.973 48.213-37.973 29.867-46.080 35.84 29.867 51.627 54.187-21.76 44.373-17.92 38.4 29.013c18.347 13.653 35.84 23.893 53.333 31.147l45.227 18.347 6.827 48.213 8.533 57.6h59.307l8.107-57.6 6.827-48.213 45.227-18.347c18.347-7.68 35.413-17.493 52.48-30.293l38.827-29.867 45.227 18.347 54.187 21.76 29.867-51.627-45.653-36.267-37.973-29.867 5.973-48.213zM512 618.667c-94.293 0-170.667-76.373-170.667-170.667s76.373-170.667 170.667-170.667 170.667 76.373 170.667 170.667-76.373 170.667-170.667 170.667zM512 362.667c-46.933 0-85.333 38.4-85.333 85.333s38.4 85.333 85.333 85.333 85.333-38.4 85.333-85.333-38.4-85.333-85.333-85.333z" />
<glyph unicode="&#xe96c;" glyph-name="shopping_bag_black_24dp1" d="M768 704h-85.333c0 94.293-76.373 170.667-170.667 170.667s-170.667-76.373-170.667-170.667h-85.333c-46.933 0-85.333-38.4-85.333-85.333v-512c0-46.933 38.4-85.333 85.333-85.333h512c46.933 0 85.333 38.4 85.333 85.333v512c0 46.933-38.4 85.333-85.333 85.333zM512 789.333c46.933 0 85.333-38.4 85.333-85.333h-170.667c0 46.933 38.4 85.333 85.333 85.333zM768 106.667h-512v512h85.333v-85.333c0-23.467 19.2-42.667 42.667-42.667s42.667 19.2 42.667 42.667v85.333h170.667v-85.333c0-23.467 19.2-42.667 42.667-42.667s42.667 19.2 42.667 42.667v85.333h85.333v-512z" />
<glyph unicode="&#xe96d;" glyph-name="shopping_cart_black_24dp1" d="M663.467 405.333c32 0 60.16 17.493 74.667 43.947l152.747 276.907c15.787 28.16-4.693 63.147-37.12 63.147h-631.467l-40.107 85.333h-139.52v-85.333h85.333l153.6-323.84-57.6-104.107c-31.147-57.173 9.813-126.72 74.667-126.72h512v85.333h-512l46.933 85.333h317.867zM262.827 704h518.4l-117.76-213.333h-299.52l-101.12 213.333zM298.667 192c-46.933 0-84.907-38.4-84.907-85.333s37.973-85.333 84.907-85.333 85.333 38.4 85.333 85.333-38.4 85.333-85.333 85.333zM725.333 192c-46.933 0-84.907-38.4-84.907-85.333s37.973-85.333 84.907-85.333 85.333 38.4 85.333 85.333-38.4 85.333-85.333 85.333z" />
<glyph unicode="&#xe96e;" glyph-name="star_black_24dp1" d="M512 223.147l263.68-159.147-69.973 299.947 232.96 201.813-306.773 26.027-119.893 282.88-119.893-282.88-306.773-26.027 232.96-201.813-69.973-299.947 263.68 159.147z" />
<glyph unicode="&#xe96f;" glyph-name="star_border_black_24dp1" d="M938.667 565.76l-306.773 26.453-119.893 282.453-119.893-282.88-306.773-26.027 232.96-201.813-69.973-299.947 263.68 159.147 263.68-159.147-69.547 299.947 232.533 201.813zM512 302.933l-160.427-96.853 42.667 182.613-141.653 122.88 186.88 16.213 72.533 171.947 72.96-172.373 186.88-16.213-141.653-122.88 42.667-182.613-160.853 97.28z" />
<glyph unicode="&#xe970;" glyph-name="star_half_black_24dp1" d="M938.667 565.76l-306.773 26.453-119.893 282.453-119.893-282.88-306.773-26.027 232.96-201.813-69.973-299.947 263.68 159.147 263.68-159.147-69.547 299.947 232.533 201.813zM512 302.933v396.8l72.96-172.373 186.88-16.213-141.653-122.88 42.667-182.613-160.853 97.28z" />
<glyph unicode="&#xe971;" glyph-name="store_black_24dp1" d="M783.36 576l25.6-128h-593.92l25.6 128h542.72zM853.333 789.333h-682.667v-85.333h682.667v85.333zM853.333 661.333h-682.667l-42.667-213.333v-85.333h42.667v-256h426.667v256h170.667v-256h85.333v256h42.667v85.333l-42.667 213.333zM256 192v170.667h256v-170.667h-256z" />
<glyph unicode="&#xe972;" glyph-name="support_agent_black_24dp1" d="M896 438.613c0 234.24-181.76 393.387-384 393.387-200.107 0-384-155.733-384-395.947-25.6-14.507-42.667-41.813-42.667-73.387v-85.333c0-46.933 38.4-85.333 85.333-85.333h42.667v260.267c0 165.12 133.547 298.667 298.667 298.667s298.667-133.547 298.667-298.667v-302.933h-341.333v-85.333h341.333c46.933 0 85.333 38.4 85.333 85.333v52.053c25.173 13.227 42.667 39.253 42.667 69.973v98.133c0 29.867-17.493 55.893-42.667 69.12zM426.667 405.333c0-23.564-19.103-42.667-42.667-42.667s-42.667 19.103-42.667 42.667c0 23.564 19.103 42.667 42.667 42.667s42.667-19.103 42.667-42.667zM682.667 405.333c0-23.564-19.103-42.667-42.667-42.667s-42.667 19.103-42.667 42.667c0 23.564 19.103 42.667 42.667 42.667s42.667-19.103 42.667-42.667zM768 489.387c-20.48 121.6-126.293 214.613-253.867 214.613-129.28 0-268.373-107.093-257.28-275.2 105.387 43.093 184.747 136.96 207.36 251.307 55.893-112.213 170.667-189.44 303.787-190.72z" />
<glyph unicode="&#xe973;" glyph-name="support_black_24dp1" d="M512 874.667c-235.52 0-426.667-191.147-426.667-426.667s191.147-426.667 426.667-426.667 426.667 191.147 426.667 426.667c0 235.52-191.147 426.667-426.667 426.667zM830.293 570.88l-118.613-49.067c-21.76 58.027-67.413 104.107-125.867 125.44l49.067 118.613c89.6-34.133 160.853-105.387 195.413-194.987zM512 320c-70.827 0-128 57.173-128 128s57.173 128 128 128 128-57.173 128-128-57.173-128-128-128zM389.547 766.293l49.92-118.613c-58.88-21.333-105.387-67.84-127.147-126.72l-118.613 49.493c34.56 90.027 105.813 161.28 195.84 195.84zM193.707 325.547l118.613 49.067c21.76-58.88 67.84-104.96 126.72-126.293l-49.92-118.613c-89.6 34.56-160.853 105.813-195.413 195.84zM634.88 129.707l-49.067 118.613c58.453 21.76 104.533 67.84 125.867 126.72l118.613-49.92c-34.56-89.6-105.813-160.853-195.413-195.413z" />
<glyph unicode="&#xe974;" glyph-name="tune_black_24dp1" d="M128 234.667v-85.333h256v85.333h-256zM128 746.667v-85.333h426.667v85.333h-426.667zM554.667 64v85.333h341.333v85.333h-341.333v85.333h-85.333v-256h85.333zM298.667 576v-85.333h-170.667v-85.333h170.667v-85.333h85.333v256h-85.333zM896 405.333v85.333h-426.667v-85.333h426.667zM640 576h85.333v85.333h170.667v85.333h-170.667v85.333h-85.333v-256z" />
<glyph unicode="&#xe975;" glyph-name="upload_black_24dp1" d="M384 277.333h256v256h170.667l-298.667 298.667-298.667-298.667h170.667v-256zM512 711.253l92.587-92.587h-49.92v-256h-85.333v256h-49.92l92.587 92.587zM213.333 192h597.333v-85.333h-597.333z" />
<glyph unicode="&#xe976;" glyph-name="upload_file_black_24dp1" d="M597.333 874.667h-341.333c-46.933 0-84.907-38.4-84.907-85.333l-0.427-682.667c0-46.933 37.973-85.333 84.907-85.333h512.427c46.933 0 85.333 38.4 85.333 85.333v512l-256 256zM768 106.667h-512v682.667h298.667v-213.333h213.333v-469.333zM341.333 319.573l60.16-60.16 67.84 67.413v-177.493h85.333v177.493l67.84-67.84 60.16 60.587-170.24 171.093-171.093-171.093z" />
<glyph unicode="&#xe977;" glyph-name="verified_black_24dp1" d="M981.333 448.427l-104.107 119.040 14.507 157.44-154.027 34.987-80.64 136.107-145.067-62.293-145.067 62.293-80.64-136.107-154.027-34.56 14.507-157.867-104.107-119.040 104.107-119.040-14.507-157.867 154.027-34.987 80.64-136.533 145.067 62.72 145.067-62.293 80.64 136.107 154.027 34.987-14.507 157.44 104.107 119.467zM812.8 385.28l-23.893-27.733 3.413-36.267 7.68-83.2-116.907-26.453-18.773-31.573-42.24-71.68-75.947 32.853-34.133 14.507-33.707-14.507-75.947-32.853-42.24 71.253-18.773 31.573-116.907 26.453 7.68 83.627 3.413 36.267-23.893 27.733-55.040 62.72 55.040 63.147 23.893 27.733-3.84 36.693-7.68 82.773 116.907 26.453 18.773 31.573 42.24 71.68 75.947-32.853 34.133-14.507 33.707 14.507 75.947 32.853 42.24-71.68 18.773-31.573 116.907-26.453-7.68-83.2-3.413-36.267 23.893-27.733 55.040-62.72-54.613-63.147zM430.507 373.333l-98.987 99.413-63.147-63.573 162.133-162.56 313.173 314.027-63.147 63.573z" />
<glyph unicode="&#xe978;" glyph-name="verified_user_black_24dp1" d="M512 917.333l-384-170.667v-256c0-236.8 163.84-458.24 384-512 220.16 53.76 384 275.2 384 512v256l-384 170.667zM810.667 490.667c0-192.853-127.147-370.773-298.667-423.68-171.52 52.907-298.667 230.827-298.667 423.68v200.533l298.667 132.693 298.667-132.693v-200.533zM316.16 465.493l-60.16-60.16 170.667-170.667 341.333 341.333-60.16 60.587-281.173-281.173z" />
<glyph unicode="&#xe979;" glyph-name="visibility_black_24dp1" d="M512 704c161.707 0 305.92-90.88 376.32-234.667-70.4-143.787-214.613-234.667-376.32-234.667s-305.92 90.88-376.32 234.667c70.4 143.787 214.613 234.667 376.32 234.667zM512 789.333c-213.333 0-395.52-132.693-469.333-320 73.813-187.307 256-320 469.333-320s395.52 132.693 469.333 320c-73.813 187.307-256 320-469.333 320zM512 576c58.88 0 106.667-47.787 106.667-106.667s-47.787-106.667-106.667-106.667-106.667 47.787-106.667 106.667 47.787 106.667 106.667 106.667zM512 661.333c-105.813 0-192-86.187-192-192s86.187-192 192-192 192 86.187 192 192-86.187 192-192 192z" />
<glyph unicode="&#xe97a;" glyph-name="visibility_off_black_24dp1" d="M512 704c161.707 0 305.92-90.88 376.32-234.667-25.173-52.053-60.587-96.853-102.827-133.12l60.16-60.16c59.307 52.48 106.24 118.187 135.68 193.28-73.813 187.307-256 320-469.333 320-54.187 0-106.24-8.533-155.307-24.32l70.4-70.4c27.733 5.547 55.893 9.387 84.907 9.387zM466.347 655.36l88.32-88.32c24.32-10.667 43.947-30.293 54.613-54.613l88.32-88.32c3.413 14.507 5.973 29.867 5.973 45.653 0.427 105.813-85.76 191.573-191.573 191.573-15.787 0-30.72-2.133-45.653-5.973zM85.76 794.88l114.347-114.347c-69.547-54.613-124.587-127.147-157.44-211.2 73.813-187.307 256-320 469.333-320 64.853 0 127.147 12.373 184.32 34.987l145.92-145.92 60.16 60.16-756.48 756.907-60.16-60.587zM405.76 474.88l111.36-111.36c-1.707-0.427-3.413-0.853-5.12-0.853-58.88 0-106.667 47.787-106.667 106.667 0 2.133 0.427 3.413 0.427 5.547zM260.693 619.947l74.667-74.667c-9.813-23.467-15.36-49.067-15.36-75.947 0-105.813 86.187-192 192-192 26.88 0 52.48 5.547 75.52 15.36l41.813-41.813c-37.547-10.24-76.8-16.213-117.333-16.213-161.707 0-305.92 90.88-376.32 234.667 29.867 61.013 73.387 111.36 125.013 150.613z" />
<glyph unicode="&#xe97b;" glyph-name="vpn_key_black_24dp1" d="M938.667 149.333h-256v170.667h-114.347c-48.64-103.253-153.6-170.667-269.653-170.667-164.693 0-298.667 133.973-298.667 298.667s133.973 298.667 298.667 298.667c116.053 0 220.587-67.413 269.653-170.667h455.68v-256h-85.333v-170.667zM768 234.667h85.333v170.667h85.333v85.333h-429.227l-9.813 28.587c-29.867 84.907-110.933 142.080-200.96 142.080-117.76 0-213.333-95.573-213.333-213.333s95.573-213.333 213.333-213.333c90.027 0 171.093 57.173 200.96 142.080l9.813 28.587h258.56v-170.667zM298.667 320c-70.4 0-128 57.6-128 128s57.6 128 128 128 128-57.6 128-128-57.6-128-128-128zM298.667 490.667c-23.467 0-42.667-19.2-42.667-42.667s19.2-42.667 42.667-42.667 42.667 19.2 42.667 42.667-19.2 42.667-42.667 42.667z" />
<glyph unicode="&#xe97c;" glyph-name="widgets_black_24dp1" d="M710.827 767.147l120.747-120.747-120.747-120.747-120.747 120.747 120.747 120.747zM384 746.667v-170.667h-170.667v170.667h170.667zM810.667 320v-170.667h-170.667v170.667h170.667zM384 320v-170.667h-170.667v170.667h170.667zM710.827 887.893l-241.493-241.067 241.493-241.493 241.493 241.493-241.493 241.067zM469.333 832h-341.333v-341.333h341.333v341.333zM896 405.333h-341.333v-341.333h341.333v341.333zM469.333 405.333h-341.333v-341.333h341.333v341.333z" />
<glyph unicode="&#xe97e;" glyph-name="category-svgrepo-com" d="M387.281 857.163c-30.633 8.752-78.769 17.504-113.777 17.504s-83.145-8.752-113.777-17.504c-30.632-4.376-52.512-26.257-56.889-56.889-8.752-30.633-17.504-78.769-17.504-113.777s8.752-83.145 13.128-113.777c4.376-30.632 30.633-52.51 56.889-56.888 30.632-4.378 78.769-13.129 113.777-13.129s83.145 8.751 113.777 13.129c30.633 4.378 52.513 30.632 56.891 56.888 4.373 30.633 13.124 78.769 13.124 113.777s-8.751 83.145-13.124 113.777c0 30.632-21.882 52.512-52.515 56.889zM387.279 375.795c-30.633 4.378-78.769 13.129-113.777 13.129s-83.145-8.751-113.777-13.129c-30.632-4.378-52.512-30.63-56.889-56.887-4.376-30.635-13.128-78.771-13.128-113.779s8.752-83.145 13.128-113.775c4.376-30.635 30.633-52.514 56.889-56.892 30.633-4.373 78.769-13.129 113.777-13.129s83.145 8.755 113.777 13.129c30.632 4.378 52.512 30.635 56.89 56.892 4.373 30.63 13.129 78.767 13.129 113.775s-8.755 83.145-13.129 113.779c-4.378 30.63-26.258 52.51-56.89 56.887zM641.088 515.823c30.635-4.378 78.771-13.129 113.779-13.129s83.145 8.751 113.775 13.129c30.635 4.378 52.514 30.632 56.887 56.888 4.378 30.632 13.129 78.769 13.129 113.777s-8.751 83.145-13.129 113.777c-4.373 30.632-30.63 52.512-56.887 56.888-30.63 4.376-78.767 13.128-113.775 13.128s-83.145-8.752-113.779-13.128c-30.63-4.376-52.514-30.632-56.887-56.888-4.378-30.633-13.129-78.769-13.129-113.777s8.751-83.145 13.129-113.777c4.373-30.633 26.257-52.511 56.887-56.888zM868.642 375.795c-30.63 4.378-78.767 13.129-113.775 13.129s-83.145-8.751-113.779-13.129c-30.63-4.378-52.514-30.63-56.887-56.887-4.378-30.635-13.129-78.771-13.129-113.779s8.751-83.145 13.129-113.775c4.373-30.635 30.63-52.514 56.887-56.892 30.635-4.373 78.771-13.129 113.779-13.129s83.145 8.755 113.775 13.129c30.635 4.378 52.514 30.635 56.887 56.892 4.378 30.63 13.129 78.767 13.129 113.775s-8.751 83.145-13.129 113.779c-4.373 30.63-26.253 52.51-56.887 56.887z" />
<glyph unicode="&#xe97f;" glyph-name="account_balance_wallet_black_24dp" d="M896 628.054v97.28c0 46.933-38.4 85.333-85.333 85.333h-597.333c-47.36 0-85.333-38.4-85.333-85.333v-597.333c0-46.933 37.973-85.333 85.333-85.333h597.333c46.933 0 85.333 38.4 85.333 85.333v97.28c25.173 14.933 42.667 41.813 42.667 73.387v256c0 31.573-17.493 58.453-42.667 73.387zM853.333 554.667v-256h-298.667v256h298.667zM213.333 128v597.333h597.333v-85.333h-256c-46.933 0-85.333-38.4-85.333-85.333v-256c0-46.933 38.4-85.333 85.333-85.333h256v-85.333h-597.333zM746.667 426.667c0-35.346-28.654-64-64-64s-64 28.654-64 64c0 35.346 28.654 64 64 64s64-28.654 64-64z" />
<glyph unicode="&#xe980;" glyph-name="account_circle_black_24dp" d="M512 853.334c-235.52 0-426.667-191.147-426.667-426.667s191.147-426.667 426.667-426.667 426.667 191.147 426.667 426.667-191.147 426.667-426.667 426.667zM313.6 149.334c55.893 40.107 124.16 64 198.4 64s142.507-23.893 198.4-64c-55.893-40.107-124.16-64-198.4-64s-142.507 23.893-198.4 64zM773.973 208.214c-72.107 56.32-162.987 90.453-261.973 90.453s-189.867-34.133-261.973-90.453c-49.493 59.307-79.36 135.253-79.36 218.453 0 188.587 152.747 341.333 341.333 341.333s341.333-152.747 341.333-341.333c0-83.2-29.867-159.147-79.36-218.453zM512 682.667c-82.347 0-149.333-66.987-149.333-149.333s66.987-149.333 149.333-149.333 149.333 66.987 149.333 149.333-66.987 149.333-149.333 149.333zM512 469.334c-35.413 0-64 28.587-64 64s28.587 64 64 64 64-28.587 64-64-28.587-64-64-64z" />
<glyph unicode="&#xe981;" glyph-name="add_card_black_24dp" d="M853.333 768h-682.667c-47.36 0-84.907-37.973-84.907-85.333l-0.427-512c0-47.36 37.973-85.333 85.333-85.333h426.667v85.333h-426.667v256h768v256c0 47.36-37.973 85.333-85.333 85.333zM853.333 597.334h-682.667v85.333h682.667v-85.333zM1024 213.334v-85.333h-128v-128h-85.333v128h-128v85.333h128v128h85.333v-128h128z" />
<glyph unicode="&#xe982;" glyph-name="add_circle_black_24dp" d="M512 853.334c-235.52 0-426.667-191.147-426.667-426.667s191.147-426.667 426.667-426.667 426.667 191.147 426.667 426.667-191.147 426.667-426.667 426.667zM725.333 384h-170.667v-170.667h-85.333v170.667h-170.667v85.333h170.667v170.667h85.333v-170.667h170.667v-85.333z" />
<glyph unicode="&#xe983;" glyph-name="add_shopping_cart_black_24dp" d="M469.333 554.667h85.333v128h128v85.333h-128v128h-85.333v-128h-128v-85.333h128v-128zM298.667 170.667c-46.933 0-84.907-38.4-84.907-85.333s37.973-85.333 84.907-85.333 85.333 38.4 85.333 85.333-38.4 85.333-85.333 85.333zM725.333 170.667c-46.933 0-84.907-38.4-84.907-85.333s37.973-85.333 84.907-85.333 85.333 38.4 85.333 85.333-38.4 85.333-85.333 85.333zM345.6 384h317.867c32 0 60.16 17.493 74.667 43.947l164.693 299.093-74.24 40.96-165.12-298.667h-299.52l-181.76 384h-139.52v-85.333h85.333l153.6-323.84-57.6-104.107c-31.147-57.173 9.813-126.72 74.667-126.72h512v85.333h-512l46.933 85.333z" />
<glyph unicode="&#xe984;" glyph-name="admin_panel_settings_black_24dp" d="M773.12 277.334c0-26.392-21.395-47.787-47.787-47.787s-47.787 21.395-47.787 47.787c0 26.392 21.395 47.787 47.787 47.787s47.787-21.395 47.787-47.787zM725.333 192c-31.147 0-93.44-15.36-95.573-46.080 21.333-30.293 56.32-49.92 95.573-49.92s74.24 19.627 95.573 49.92c-2.133 30.72-64.427 46.080-95.573 46.080zM768 465.494v205.653l-320 139.52-320-139.52v-209.493c0-193.707 136.533-375.040 320-418.987 23.467 5.547 46.080 13.653 68.267 23.467 46.080-65.707 122.453-108.8 209.067-108.8 141.227 0 256 114.773 256 256 0 126.72-92.16 231.68-213.333 252.16zM469.333 213.334c0-23.893 3.413-47.36 9.813-69.12-10.24-4.693-20.48-9.387-31.147-12.8-135.253 42.667-234.667 180.907-234.667 330.24v153.6l234.667 102.4 234.667-102.4v-149.76c-121.173-20.48-213.333-125.44-213.333-252.16zM725.333 42.667c-94.293 0-170.667 76.373-170.667 170.667s76.373 170.667 170.667 170.667 170.667-76.373 170.667-170.667c0-94.293-76.373-170.667-170.667-170.667z" />
<glyph unicode="&#xe985;" glyph-name="alternate_email_black_24dp" d="M512 855.467c-235.52 0-426.667-191.147-426.667-426.667s191.147-426.667 426.667-426.667h213.333v85.333h-213.333c-185.173 0-341.333 156.16-341.333 341.333s156.16 341.333 341.333 341.333 341.333-156.16 341.333-341.333v-61.013c0-33.707-30.293-66.987-64-66.987s-64 33.28-64 66.987v61.013c0 117.76-95.573 213.333-213.333 213.333s-213.333-95.573-213.333-213.333 95.573-213.333 213.333-213.333c58.88 0 112.64 23.893 151.040 62.72 27.733-37.973 75.52-62.72 126.293-62.72 84.053 0 149.333 68.267 149.333 152.32v61.013c0 235.52-191.147 426.667-426.667 426.667zM512 300.8c-70.827 0-128 57.173-128 128s57.173 128 128 128 128-57.173 128-128-57.173-128-128-128z" />
<glyph unicode="&#xe986;" glyph-name="archive_black_24dp" d="M876.373 715.52l-59.307 71.68c-11.52 14.507-29.013 23.467-49.067 23.467h-512c-20.053 0-37.547-8.96-49.493-23.467l-58.88-71.68c-12.373-14.507-19.627-33.707-19.627-54.187v-533.333c0-46.933 38.4-85.333 85.333-85.333h597.333c46.933 0 85.333 38.4 85.333 85.333v533.333c0 20.48-7.253 39.68-19.627 54.187zM266.24 725.334h491.52l34.56-41.387h-560.213l34.133 41.387zM213.333 128v469.333h597.333v-469.333h-597.333zM573.867 512h-123.733v-128h-108.8l170.667-170.667 170.667 170.667h-108.8z" />
<glyph unicode="&#xe987;" glyph-name="arrow_back_black_24dp" d="M853.333 469.334h-519.253l238.507 238.507-60.587 60.16-341.333-341.333 341.333-341.333 60.16 60.16-238.080 238.507h519.253v85.333z" />
<glyph unicode="&#xe988;" glyph-name="arrow_circle_down_black_24dp" d="M512 768c188.16 0 341.333-153.173 341.333-341.333s-153.173-341.333-341.333-341.333-341.333 153.173-341.333 341.333 153.173 341.333 341.333 341.333zM512 853.334c-235.52 0-426.667-191.147-426.667-426.667s191.147-426.667 426.667-426.667c235.52 0 426.667 191.147 426.667 426.667s-191.147 426.667-426.667 426.667v0zM554.667 426.667v170.667h-85.333v-170.667h-128l170.667-170.667 170.667 170.667h-128z" />
<glyph unicode="&#xe989;" glyph-name="arrow_circle_left_black_24dp" d="M85.333 426.667c0-235.52 191.147-426.667 426.667-426.667s426.667 191.147 426.667 426.667-191.147 426.667-426.667 426.667c-235.52 0-426.667-191.147-426.667-426.667zM853.333 426.667c0-188.587-152.747-341.333-341.333-341.333s-341.333 152.747-341.333 341.333 152.747 341.333 341.333 341.333c188.587 0 341.333-152.747 341.333-341.333zM341.333 426.667l170.667 170.667 60.16-60.16-67.413-67.84h177.92v-85.333h-177.92l67.84-67.84-60.587-60.16-170.667 170.667z" />
<glyph unicode="&#xe98a;" glyph-name="arrow_circle_right_black_24dp" d="M938.667 426.667c0 235.52-191.147 426.667-426.667 426.667s-426.667-191.147-426.667-426.667 191.147-426.667 426.667-426.667c235.52 0 426.667 191.147 426.667 426.667zM170.667 426.667c0 188.587 152.747 341.333 341.333 341.333s341.333-152.747 341.333-341.333-152.747-341.333-341.333-341.333c-188.587 0-341.333 152.747-341.333 341.333zM682.667 426.667l-170.667-170.667-60.16 60.16 67.413 67.84h-177.92v85.333h177.92l-67.84 67.84 60.587 60.16 170.667-170.667z" />
<glyph unicode="&#xe98b;" glyph-name="arrow_circle_up_black_24dp" d="M512 85.334c-188.16 0-341.333 153.173-341.333 341.333s153.173 341.333 341.333 341.333 341.333-153.173 341.333-341.333-153.173-341.333-341.333-341.333zM512-0c235.52 0 426.667 191.147 426.667 426.667s-191.147 426.667-426.667 426.667c-235.52 0-426.667-191.147-426.667-426.667s191.147-426.667 426.667-426.667v0zM469.333 426.667v-170.667h85.333v170.667h128l-170.667 170.667-170.667-170.667h128z" />
<glyph unicode="&#xe98c;" glyph-name="arrow_forward_black_24dp" d="M512 768l-60.16-60.16 238.080-238.507h-519.253v-85.333h519.253l-238.080-238.507 60.16-60.16 341.333 341.333-341.333 341.333z" />
<glyph unicode="&#xe98d;" glyph-name="assignment_black_24dp" d="M298.667 298.667h298.667v-85.333h-298.667zM298.667 469.334h426.667v-85.333h-426.667zM298.667 640h426.667v-85.333h-426.667zM810.667 810.667h-178.347c-17.92 49.493-64.853 85.333-120.32 85.333s-102.4-35.84-120.32-85.333h-178.347c-5.973 0-11.52-0.427-17.067-1.707-16.64-3.413-31.573-11.947-43.093-23.467-7.68-7.68-14.080-17.067-18.347-27.307-4.267-9.813-6.827-20.907-6.827-32.853v-597.333c0-11.52 2.56-23.040 6.827-33.28s10.667-19.2 18.347-27.307c11.52-11.52 26.453-20.053 43.093-23.467 5.547-0.853 11.093-1.28 17.067-1.28h597.333c46.933 0 85.333 38.4 85.333 85.333v597.333c0 46.933-38.4 85.333-85.333 85.333zM512 821.334c17.493 0 32-14.507 32-32s-14.507-32-32-32-32 14.507-32 32 14.507 32 32 32zM810.667 128h-597.333v597.333h597.333v-597.333z" />
<glyph unicode="&#xe98e;" glyph-name="assignment_turned_in_black_24dp" d="M768 554.667l-60.16 60.587-281.173-281.173-110.507 110.080-60.16-60.16 170.667-170.667zM810.667 810.667h-178.347c-17.92 49.493-64.853 85.333-120.32 85.333s-102.4-35.84-120.32-85.333h-178.347c-5.973 0-11.52-0.427-17.067-1.707-16.64-3.413-31.573-11.947-43.093-23.467-7.68-7.68-14.080-17.067-18.347-27.307-4.267-9.813-6.827-20.907-6.827-32.853v-597.333c0-11.52 2.56-23.040 6.827-33.28s10.667-19.2 18.347-27.307c11.52-11.52 26.453-20.053 43.093-23.467 5.547-0.853 11.093-1.28 17.067-1.28h597.333c46.933 0 85.333 38.4 85.333 85.333v597.333c0 46.933-38.4 85.333-85.333 85.333zM512 821.334c17.493 0 32-14.507 32-32s-14.507-32-32-32-32 14.507-32 32 14.507 32 32 32zM810.667 128h-597.333v597.333h597.333v-597.333z" />
<glyph unicode="&#xe98f;" glyph-name="attach_money_black_24dp" d="M503.467 473.6c-96.853 25.173-128 51.2-128 91.733 0 46.507 43.093 78.933 115.2 78.933 75.947 0 104.107-36.267 106.667-89.6h94.293c-2.987 73.387-47.787 140.8-136.96 162.56v93.44h-128v-92.16c-82.773-17.92-149.333-71.68-149.333-154.027 0-98.56 81.493-147.627 200.533-176.213 106.667-25.6 128-63.147 128-102.827 0-29.44-20.907-76.373-115.2-76.373-87.893 0-122.453 39.253-127.147 89.6h-93.867c5.12-93.44 75.093-145.92 157.013-163.413v-92.587h128v91.733c83.2 15.787 149.333 64 149.333 151.467 0 121.173-103.68 162.56-200.533 187.733z" />
<glyph unicode="&#xe990;" glyph-name="bar_chart_black_24dp" d="M170.667 554.667h170.667v-469.333h-170.667v469.333zM682.667 384h170.667v-298.667h-170.667v298.667zM426.667 768h170.667v-682.667h-170.667v682.667z" />
<glyph unicode="&#xe991;" glyph-name="block_black_24dp" d="M512 853.334c-235.52 0-426.667-191.147-426.667-426.667s191.147-426.667 426.667-426.667 426.667 191.147 426.667 426.667-191.147 426.667-426.667 426.667zM170.667 426.667c0 188.587 152.747 341.333 341.333 341.333 78.933 0 151.467-26.88 209.067-72.107l-478.293-478.293c-45.227 57.6-72.107 130.133-72.107 209.067zM512 85.334c-78.933 0-151.467 26.88-209.067 72.107l478.293 478.293c45.227-57.6 72.107-130.133 72.107-209.067 0-188.587-152.747-341.333-341.333-341.333z" />
<glyph unicode="&#xe992;" glyph-name="bookmark_add_black_24dp" d="M725.333 469.334v-297.387l-213.333 91.307-213.333-91.307v553.387h256v85.333h-256c-46.933 0-85.333-38.4-85.333-85.333v-682.667l298.667 128 298.667-128v426.667h-85.333zM896 640h-85.333v-85.333h-85.333v85.333h-85.333v85.333h85.333v85.333h85.333v-85.333h85.333v-85.333z" />
<glyph unicode="&#xe993;" glyph-name="bookmark_added_black_24dp" d="M725.333 469.334v-297.387l-213.333 91.307-213.333-91.307v553.387h256v85.333h-256c-46.933 0-85.333-38.4-85.333-85.333v-682.667l298.667 128 298.667-128v426.667h-85.333zM760.747 554.667l-120.747 120.747 60.16 60.16 60.16-60.16 151.040 151.040 60.16-60.16-210.773-211.627z" />
<glyph unicode="&#xe994;" glyph-name="bookmark_black_24dp" d="M725.333 810.667h-426.667c-46.933 0-85.333-38.4-85.333-85.333v-682.667l298.667 128 298.667-128v682.667c0 46.933-38.4 85.333-85.333 85.333z" />
<glyph unicode="&#xe995;" glyph-name="bookmark_border_black_24dp" d="M725.333 810.667h-426.667c-46.933 0-85.333-38.4-85.333-85.333v-682.667l298.667 128 298.667-128v682.667c0 46.933-38.4 85.333-85.333 85.333zM725.333 170.667l-213.333 93.013-213.333-93.013v554.667h426.667v-554.667z" />
<glyph unicode="&#xe996;" glyph-name="bookmark_remove_black_24dp" d="M725.333 469.334v-297.387l-213.333 91.307-213.333-91.307v553.387h256v85.333h-256c-46.933 0-85.333-38.4-85.333-85.333v-682.667l298.667 128 298.667-128v426.667h-85.333zM896 640h-256v85.333h256v-85.333z" />
<glyph unicode="&#xe997;" glyph-name="call_black_24dp" d="M279.040 725.334c2.56-37.973 8.96-75.093 19.2-110.507l-51.2-51.2c-17.493 51.2-28.587 105.387-32.427 161.707h64.427zM699.733 212.48c36.267-10.24 73.387-16.64 110.933-19.2v-63.573c-56.32 3.84-110.507 14.933-162.133 32l51.2 50.773zM320 810.667h-149.333c-23.467 0-42.667-19.2-42.667-42.667 0-400.64 324.693-725.333 725.333-725.333 23.467 0 42.667 19.2 42.667 42.667v148.907c0 23.467-19.2 42.667-42.667 42.667-52.907 0-104.533 8.533-152.32 24.32-4.267 1.707-8.96 2.133-13.227 2.133-11.093 0-21.76-4.267-30.293-12.373l-93.867-93.867c-120.747 61.867-219.733 160.427-281.173 281.173l93.867 93.867c11.947 11.947 15.36 28.587 10.667 43.52-15.787 47.787-24.32 98.987-24.32 152.32 0 23.467-19.2 42.667-42.667 42.667z" />
<glyph unicode="&#xe998;" glyph-name="card_giftcard_black_24dp" d="M853.333 682.667h-93.013c4.693 13.227 7.68 27.733 7.68 42.667 0 70.827-57.173 128-128 128-44.8 0-83.627-23.040-106.667-57.6l-21.333-28.587-21.333 29.013c-23.040 34.133-61.867 57.173-106.667 57.173-70.827 0-128-57.173-128-128 0-14.933 2.987-29.44 7.68-42.667h-93.013c-47.36 0-84.907-37.973-84.907-85.333l-0.427-469.333c0-47.36 37.973-85.333 85.333-85.333h682.667c47.36 0 85.333 37.973 85.333 85.333v469.333c0 47.36-37.973 85.333-85.333 85.333zM640 768c23.467 0 42.667-19.2 42.667-42.667s-19.2-42.667-42.667-42.667-42.667 19.2-42.667 42.667 19.2 42.667 42.667 42.667zM384 768c23.467 0 42.667-19.2 42.667-42.667s-19.2-42.667-42.667-42.667-42.667 19.2-42.667 42.667 19.2 42.667 42.667 42.667zM853.333 128h-682.667v85.333h682.667v-85.333zM853.333 341.334h-682.667v256h216.747l-88.747-120.747 69.12-49.92 144.213 196.267 144.213-196.267 69.12 49.92-88.747 120.747h216.747v-256z" />
<glyph unicode="&#xe999;" glyph-name="card_membership_black_24dp" d="M853.333 853.334h-682.667c-47.36 0-85.333-37.973-85.333-85.333v-469.333c0-47.36 37.973-85.333 85.333-85.333h170.667v-213.333l170.667 85.333 170.667-85.333v213.333h170.667c47.36 0 85.333 37.973 85.333 85.333v469.333c0 47.36-37.973 85.333-85.333 85.333zM853.333 298.667h-682.667v85.333h682.667v-85.333zM853.333 512h-682.667v256h682.667v-256z" />
<glyph unicode="&#xe99a;" glyph-name="category_black_24dp" d="M512 853.334l-234.667-384h469.333l-234.667 384zM512 689.494l82.347-134.827h-165.12l82.773 134.827zM746.667 384c-106.24 0-192-85.76-192-192s85.76-192 192-192 192 85.76 192 192-85.76 192-192 192zM746.667 85.334c-58.88 0-106.667 47.787-106.667 106.667s47.787 106.667 106.667 106.667 106.667-47.787 106.667-106.667-47.787-106.667-106.667-106.667zM128 21.334h341.333v341.333h-341.333v-341.333zM213.333 277.334h170.667v-170.667h-170.667v170.667z" />
<glyph unicode="&#xe99b;" glyph-name="chat_black_24dp" d="M170.667 768h682.667v-512h-632.747l-49.92-49.92v561.92zM170.667 853.334c-46.933 0-84.907-38.4-84.907-85.333l-0.427-768 170.667 170.667h597.333c46.933 0 85.333 38.4 85.333 85.333v512c0 46.933-38.4 85.333-85.333 85.333h-682.667zM256 426.667h341.333v-85.333h-341.333v85.333zM256 554.667h512v-85.333h-512v85.333zM256 682.667h512v-85.333h-512v85.333z" />
<glyph unicode="&#xe99c;" glyph-name="chevron_left_black_24dp" d="M657.493 622.507l-60.16 60.16-256-256 256-256 60.16 60.16-195.413 195.84 195.413 195.84z" />
<glyph unicode="&#xe99d;" glyph-name="chevron_right_black_24dp" d="M426.667 682.667l-60.16-60.16 195.413-195.84-195.413-195.84 60.16-60.16 256 256-256 256z" />
<glyph unicode="&#xe99e;" glyph-name="clear_black_24dp" d="M810.667 665.174l-60.16 60.16-238.507-238.507-238.507 238.507-60.16-60.16 238.507-238.507-238.507-238.507 60.16-60.16 238.507 238.507 238.507-238.507 60.16 60.16-238.507 238.507 238.507 238.507z" />
<glyph unicode="&#xe99f;" glyph-name="close_black_24dp" d="M810.667 665.174l-60.16 60.16-238.507-238.507-238.507 238.507-60.16-60.16 238.507-238.507-238.507-238.507 60.16-60.16 238.507 238.507 238.507-238.507 60.16 60.16-238.507 238.507 238.507 238.507z" />
<glyph unicode="&#xe9a0;" glyph-name="cloud_download_black_24dp" d="M825.6 510.294c-29.013 147.2-158.293 257.707-313.6 257.707-123.307 0-230.4-69.973-283.733-172.373-128.427-13.653-228.267-122.453-228.267-254.293 0-141.227 114.773-256 256-256h554.667c117.76 0 213.333 95.573 213.333 213.333 0 112.64-87.467 203.947-198.4 211.627zM810.667 170.667h-554.667c-94.293 0-170.667 76.373-170.667 170.667 0 87.467 65.28 160.427 151.893 169.387l45.653 4.693 21.333 40.533c40.533 78.080 119.893 126.72 207.787 126.72 111.787 0 208.213-79.36 229.973-189.013l12.8-64 65.28-4.693c66.56-4.267 118.613-60.16 118.613-126.293 0-70.4-57.6-128-128-128zM573.867 512h-123.733v-128h-108.8l170.667-170.667 170.667 170.667h-108.8z" />
<glyph unicode="&#xe9a1;" glyph-name="cloud_upload_black_24dp" d="M825.6 510.294c-29.013 147.2-158.293 257.707-313.6 257.707-123.307 0-230.4-69.973-283.733-172.373-128.427-13.653-228.267-122.453-228.267-254.293 0-141.227 114.773-256 256-256h554.667c117.76 0 213.333 95.573 213.333 213.333 0 112.64-87.467 203.947-198.4 211.627zM810.667 170.667h-554.667c-94.293 0-170.667 76.373-170.667 170.667 0 87.467 65.28 160.427 151.893 169.387l45.653 4.693 21.333 40.533c40.533 78.080 119.893 126.72 207.787 126.72 111.787 0 208.213-79.36 229.973-189.013l12.8-64 65.28-4.693c66.56-4.267 118.613-60.16 118.613-126.293 0-70.4-57.6-128-128-128zM341.333 384h108.8v-128h123.733v128h108.8l-170.667 170.667z" />
<glyph unicode="&#xe9a2;" glyph-name="credit_card_black_24dp" d="M853.333 768h-682.667c-47.36 0-84.907-37.973-84.907-85.333l-0.427-512c0-47.36 37.973-85.333 85.333-85.333h682.667c47.36 0 85.333 37.973 85.333 85.333v512c0 47.36-37.973 85.333-85.333 85.333zM853.333 170.667h-682.667v256h682.667v-256zM853.333 597.334h-682.667v85.333h682.667v-85.333z" />
<glyph unicode="&#xe9a3;" glyph-name="credit_score_black_24dp" d="M853.333 768h-682.667c-47.36 0-84.907-37.973-84.907-85.333l-0.427-512c0-47.36 37.973-85.333 85.333-85.333h213.333v85.333h-213.333v256h768v256c0 47.36-37.973 85.333-85.333 85.333zM853.333 597.334h-682.667v85.333h682.667v-85.333zM637.013 120.747l-120.747 120.747-60.16-60.16 180.907-181.333 301.653 301.653-60.16 60.16-241.493-241.067z" />
<glyph unicode="&#xe9a4;" glyph-name="dashboard_black_24dp" d="M810.667 725.334v-85.333h-170.667v85.333h170.667zM384 725.334v-256h-170.667v256h170.667zM810.667 384v-256h-170.667v256h170.667zM384 213.334v-85.333h-170.667v85.333h170.667zM896 810.667h-341.333v-256h341.333v256zM469.333 810.667h-341.333v-426.667h341.333v426.667zM896 469.334h-341.333v-426.667h341.333v426.667zM469.333 298.667h-341.333v-256h341.333v256z" />
<glyph unicode="&#xe9a5;" glyph-name="delete_black_24dp" d="M682.667 554.667v-426.667h-341.333v426.667h341.333zM618.667 810.667h-213.333l-42.667-42.667h-149.333v-85.333h597.333v85.333h-149.333l-42.667 42.667zM768 640h-512v-512c0-46.933 38.4-85.333 85.333-85.333h341.333c46.933 0 85.333 38.4 85.333 85.333v512z" />
<glyph unicode="&#xe9a6;" glyph-name="delete_forever_black_24dp" d="M602.453 491.947l-90.453-90.453-90.88 90.453-60.16-60.16 90.88-90.453-90.453-90.453 60.16-60.16 90.453 90.453 90.453-90.453 60.16 60.16-90.453 90.453 90.453 90.453zM661.333 768l-42.667 42.667h-213.333l-42.667-42.667h-149.333v-85.333h597.333v85.333zM256 128c0-46.933 38.4-85.333 85.333-85.333h341.333c46.933 0 85.333 38.4 85.333 85.333v512h-512v-512zM341.333 554.667h341.333v-426.667h-341.333v426.667z" />
<glyph unicode="&#xe9a7;" glyph-name="download_black_24dp" d="M810.667 554.667h-170.667v256h-256v-256h-170.667l298.667-298.667 298.667 298.667zM469.333 469.334v256h85.333v-256h49.92l-92.587-92.587-92.587 92.587h49.92zM213.333 170.667h597.333v-85.333h-597.333z" />
<glyph unicode="&#xe9a8;" glyph-name="download_done_black_24dp" d="M213.333 170.667h597.333v-85.333h-597.333v85.333zM409.6 285.867l-196.267 196.267 85.333 81.067 110.933-110.933 315.733 315.733 85.333-85.333-401.067-396.8z" />
<glyph unicode="&#xe9a9;" glyph-name="downloading_black_24dp" d="M781.653 756.907c-63.147 51.627-141.227 85.76-226.987 94.293v-86.187c62.293-7.68 119.040-32.427 166.4-69.12l60.587 61.013zM850.347 469.334h86.187c-8.533 85.76-42.667 163.84-94.293 226.987l-61.013-60.587c36.693-47.36 61.44-104.107 69.12-166.4zM781.227 217.6l61.013-61.013c51.627 63.147 85.76 141.653 94.293 226.987h-86.187c-7.68-61.867-32.427-118.613-69.12-165.973zM554.667 88.32v-86.187c85.76 8.533 163.84 42.667 226.987 94.293l-61.013 61.013c-46.933-36.693-103.68-61.44-165.973-69.12zM665.173 486.827l-110.507-110.080v263.253h-85.333v-263.253l-110.507 110.507-60.16-60.587 213.333-213.333 213.333 213.333-60.16 60.16zM469.333 88.32v-86.187c-215.467 21.333-384 203.093-384 424.533s168.533 403.2 384 424.533v-86.187c-168.533-20.907-298.667-164.267-298.667-338.347s130.133-317.44 298.667-338.347z" />
<glyph unicode="&#xe9aa;" glyph-name="edit_black_24dp" d="M599.893 553.814l39.253-39.253-386.56-386.56h-39.253v39.253l386.56 386.56zM753.493 810.667c-10.667 0-21.76-4.267-29.867-12.373l-78.080-78.080 160-160 78.080 78.080c16.64 16.64 16.64 43.52 0 60.16l-99.84 99.84c-8.533 8.533-19.2 12.373-30.293 12.373zM599.893 674.56l-471.893-471.893v-160h160l471.893 471.893-160 160z" />
<glyph unicode="&#xe9ab;" glyph-name="edit_note_black_24dp" d="M128 512h469.333v-85.333h-469.333v85.333zM128 597.334h469.333v85.333h-469.333v-85.333zM128 256h298.667v85.333h-298.667v-85.333zM768.427 389.547l30.293 30.293c16.64 16.64 43.52 16.64 60.16 0l30.293-30.293c16.64-16.64 16.64-43.52 0-60.16l-30.293-30.293-90.453 90.453zM738.133 359.254l-226.133-226.133v-90.453h90.453l226.133 226.133-90.453 90.453z" />
<glyph unicode="&#xe9ac;" glyph-name="emoji_events_black_24dp" d="M810.667 725.334h-85.333v85.333h-426.667v-85.333h-85.333c-46.933 0-85.333-38.4-85.333-85.333v-42.667c0-108.8 81.92-197.547 187.307-210.773 26.88-64 84.48-112.213 154.027-126.293v-132.267h-170.667v-85.333h426.667v85.333h-170.667v132.267c69.547 14.080 127.147 62.293 154.027 126.293 105.387 13.227 187.307 101.973 187.307 210.773v42.667c0 46.933-38.4 85.333-85.333 85.333zM213.333 597.334v42.667h85.333v-162.987c-49.493 17.92-85.333 64.853-85.333 120.32zM512 341.334c-70.4 0-128 57.6-128 128v256h256v-256c0-70.4-57.6-128-128-128zM810.667 597.334c0-55.467-35.84-102.4-85.333-120.32v162.987h85.333v-42.667z" />
<glyph unicode="&#xe9ad;" glyph-name="expand_less_black_24dp" d="M512 597.334l-256-256 60.16-60.16 195.84 195.413 195.84-195.413 60.16 60.16-256 256z" />
<glyph unicode="&#xe9ae;" glyph-name="expand_more_black_24dp" d="M707.84 572.16l-195.84-195.413-195.84 195.413-60.16-60.16 256-256 256 256-60.16 60.16z" />
<glyph unicode="&#xe9af;" glyph-name="explore_black_24dp" d="M512 853.334c-235.52 0-426.667-191.147-426.667-426.667s191.147-426.667 426.667-426.667 426.667 191.147 426.667 426.667-191.147 426.667-426.667 426.667zM512 85.334c-188.16 0-341.333 153.173-341.333 341.333s153.173 341.333 341.333 341.333 341.333-153.173 341.333-341.333-153.173-341.333-341.333-341.333zM277.333 192l320.427 148.907 148.907 320.427-320.427-148.907-148.907-320.427zM512 473.6c26.027 0 46.933-20.907 46.933-46.933s-20.907-46.933-46.933-46.933-46.933 20.907-46.933 46.933 20.907 46.933 46.933 46.933z" />
<glyph unicode="&#xe9b0;" glyph-name="extension_black_24dp" d="M448 746.667c11.947 0 21.333-9.387 21.333-21.333v-85.333h256v-256h85.333c11.947 0 21.333-9.387 21.333-21.333s-9.387-21.333-21.333-21.333h-85.333v-256h-90.453c-29.013 74.667-101.973 128-186.88 128s-157.867-53.333-186.88-128h-90.453v90.453c74.667 29.013 128 101.973 128 186.88s-52.907 157.867-127.573 186.88l-0.427 90.453h256v85.333c0 11.947 9.387 21.333 21.333 21.333zM448 832c-58.88 0-106.667-47.787-106.667-106.667h-170.667c-46.933 0-84.907-38.4-84.907-85.333v-162.133h12.373c63.573 0 115.2-51.627 115.2-115.2s-51.627-115.2-115.2-115.2h-12.8v-162.133c0-46.933 38.4-85.333 85.333-85.333h162.133v12.8c0 63.573 51.627 115.2 115.2 115.2s115.2-51.627 115.2-115.2v-12.8h162.133c46.933 0 85.333 38.4 85.333 85.333v170.667c58.88 0 106.667 47.787 106.667 106.667s-47.787 106.667-106.667 106.667v170.667c0 46.933-38.4 85.333-85.333 85.333h-170.667c0 58.88-47.787 106.667-106.667 106.667z" />
<glyph unicode="&#xe9b1;" glyph-name="favorite_black_24dp" d="M512 27.734l-61.867 56.32c-219.733 199.253-364.8 330.667-364.8 491.947 0 131.413 103.253 234.667 234.667 234.667 74.24 0 145.493-34.56 192-89.173 46.507 54.613 117.76 89.173 192 89.173 131.413 0 234.667-103.253 234.667-234.667 0-161.28-145.067-292.693-364.8-492.373l-61.867-55.893z" />
<glyph unicode="&#xe9b2;" glyph-name="favorite_border_black_24dp" d="M704 810.667c-74.24 0-145.493-34.56-192-89.173-46.507 54.613-117.76 89.173-192 89.173-131.413 0-234.667-103.253-234.667-234.667 0-161.28 145.067-292.693 364.8-492.373l61.867-55.893 61.867 56.32c219.733 199.253 364.8 330.667 364.8 491.947 0 131.413-103.253 234.667-234.667 234.667zM516.267 147.2l-4.267-4.267-4.267 4.267c-203.093 183.893-337.067 305.493-337.067 428.8 0 85.333 64 149.333 149.333 149.333 65.707 0 129.707-42.24 152.32-100.693h79.787c22.187 58.453 86.187 100.693 151.893 100.693 85.333 0 149.333-64 149.333-149.333 0-123.307-133.973-244.907-337.067-428.8z" />
<glyph unicode="&#xe9b3;" glyph-name="fax_black_24dp" d="M810.667 554.667h-42.667v213.333h-426.667v-213.333h-33.28c-23.467 26.027-56.747 42.667-94.72 42.667-70.827 0-128-57.173-128-128v-298.667c0-70.827 57.173-128 128-128 37.973 0 71.253 16.64 94.72 42.667h630.613v341.333c0 70.827-57.173 128-128 128zM256 170.667c0-23.467-19.2-42.667-42.667-42.667s-42.667 19.2-42.667 42.667v298.667c0 23.467 19.2 42.667 42.667 42.667s42.667-19.2 42.667-42.667v-298.667zM426.667 682.667h256v-128h-256v128zM853.333 170.667h-512v298.667h469.333c23.467 0 42.667-19.2 42.667-42.667v-256zM682.667 384c0-23.564-19.103-42.667-42.667-42.667s-42.667 19.103-42.667 42.667c0 23.564 19.103 42.667 42.667 42.667s42.667-19.103 42.667-42.667zM810.667 384c0-23.564-19.103-42.667-42.667-42.667s-42.667 19.103-42.667 42.667c0 23.564 19.103 42.667 42.667 42.667s42.667-19.103 42.667-42.667zM682.667 256c0-23.564-19.103-42.667-42.667-42.667s-42.667 19.103-42.667 42.667c0 23.564 19.103 42.667 42.667 42.667s42.667-19.103 42.667-42.667zM810.667 256c0-23.564-19.103-42.667-42.667-42.667s-42.667 19.103-42.667 42.667c0 23.564 19.103 42.667 42.667 42.667s42.667-19.103 42.667-42.667zM384 426.667h170.667v-213.333h-170.667v213.333z" />
<glyph unicode="&#xe9b4;" glyph-name="feedback_black_24dp" d="M853.333 853.334h-682.667c-46.933 0-84.907-38.4-84.907-85.333l-0.427-768 170.667 170.667h597.333c46.933 0 85.333 38.4 85.333 85.333v512c0 46.933-38.4 85.333-85.333 85.333zM853.333 256h-632.747l-49.92-49.92v561.92h682.667v-512zM469.333 426.667h85.333v-85.333h-85.333zM469.333 682.667h85.333v-170.667h-85.333z" />
<glyph unicode="&#xe9b5;" glyph-name="file_download_black_24dp" d="M768 298.667v-128h-512v128h-85.333v-128c0-46.933 38.4-85.333 85.333-85.333h512c46.933 0 85.333 38.4 85.333 85.333v128h-85.333zM725.333 469.334l-60.16 60.16-110.507-110.080v348.587h-85.333v-348.587l-110.507 110.080-60.16-60.16 213.333-213.333 213.333 213.333z" />
<glyph unicode="&#xe9b6;" glyph-name="file_download_done_black_24dp" d="M858.88 707.84l-60.16 60.16-392.107-392.107-181.333 180.907-60.16-60.16 241.493-241.493zM213.333 170.667h597.333v-85.333h-597.333v85.333z" />
<glyph unicode="&#xe9b7;" glyph-name="file_upload_black_24dp" d="M768 298.667v-128h-512v128h-85.333v-128c0-46.933 38.4-85.333 85.333-85.333h512c46.933 0 85.333 38.4 85.333 85.333v128h-85.333zM298.667 554.667l60.16-60.16 110.507 110.080v-348.587h85.333v348.587l110.507-110.080 60.16 60.16-213.333 213.333-213.333-213.333z" />
<glyph unicode="&#xe9b8;" glyph-name="filter_alt_black_24dp" d="M298.667 682.667h426.667l-213.76-268.8-212.907 268.8zM181.333 699.307c86.187-110.507 245.333-315.307 245.333-315.307v-256c0-23.467 19.2-42.667 42.667-42.667h85.333c23.467 0 42.667 19.2 42.667 42.667v256c0 0 158.72 204.8 244.907 315.307 21.76 28.16 1.707 68.693-33.707 68.693h-593.493c-35.413 0-55.467-40.533-33.707-68.693z" />
<glyph unicode="&#xe9b9;" glyph-name="folder_black_24dp" d="M391.253 682.667l85.333-85.333h376.747v-426.667h-682.667v512h220.587zM426.667 768h-256c-46.933 0-84.907-38.4-84.907-85.333l-0.427-512c0-46.933 38.4-85.333 85.333-85.333h682.667c46.933 0 85.333 38.4 85.333 85.333v426.667c0 46.933-38.4 85.333-85.333 85.333h-341.333l-85.333 85.333z" />
<glyph unicode="&#xe9ba;" glyph-name="grade_black_24dp" d="M512 634.454l61.44-145.067 51.2-4.267 105.387-8.96-119.040-103.253 11.52-50.347 23.893-102.827-90.453 54.613-43.947 27.307-43.947-26.453-90.453-54.613 23.893 102.827 11.52 50.347-119.040 103.253 156.587 13.227 20.053 47.36 41.387 96.853zM512 853.334l-119.893-282.88-306.773-26.027 232.96-201.813-69.973-299.947 263.68 159.147 263.68-159.147-69.973 299.947 232.96 201.813-306.773 26.027-119.893 282.88z" />
<glyph unicode="&#xe9bb;" glyph-name="grid_view_black_24dp" d="M128 810.667v-341.333h341.333v341.333h-341.333zM384 554.667h-170.667v170.667h170.667v-170.667zM128 384v-341.333h341.333v341.333h-341.333zM384 128h-170.667v170.667h170.667v-170.667zM554.667 810.667v-341.333h341.333v341.333h-341.333zM810.667 554.667h-170.667v170.667h170.667v-170.667zM554.667 384v-341.333h341.333v341.333h-341.333zM810.667 128h-170.667v170.667h170.667v-170.667z" />
</font>
</defs>
</svg>
